<svg width="33" height="34" viewBox="0 0 33 34" fill="none" xmlns="http://www.w3.org/2000/svg">
<g clip-path="url(#clip0_347_1056)">
<path d="M13.5345 20.483C14.2246 21.2006 29.3119 14.7343 31.8448 15.9978C32.1823 16.1658 32.4325 16.4826 32.6297 16.7956C33.9682 20.0669 31.4239 20.7884 29.0579 22.1549C23.8329 25.1667 12.9885 31.5452 7.76733 33.3736C6.07243 33.9653 4.04765 34.3317 2.34517 33.5683C0.805725 32.8812 0.0663335 31.3391 0.00566588 29.7053C-0.0398348 28.4876 0.187666 27.3119 0.726092 26.2202C1.35931 24.9453 2.07974 23.72 2.75467 22.4679C3.36893 21.3342 3.9794 20.1967 4.59366 19.063C5.28754 17.7804 5.98143 16.494 6.67531 15.2115C7.39195 13.8869 8.10859 12.5585 8.82523 11.234C9.50774 9.97431 10.1865 8.71082 10.869 7.45115C11.5363 6.10368 12.2643 4.79057 12.9923 3.47364C13.2805 2.95069 13.6028 2.45064 13.8644 1.91242C14.1185 1.38565 14.3687 0.82452 14.8313 0.442802C15.2181 0.125976 15.7262 -0.0267091 16.2229 0.00382834C18.57 0.148881 18.3349 2.97741 17.9822 4.6188C17.6827 6.0197 17.2846 7.39007 16.8751 8.76426C16.2001 11.0164 15.438 13.238 14.7062 15.471C14.4104 16.3719 14.1185 17.2766 13.8568 18.1889C13.69 18.7729 13.5042 19.3798 13.4587 19.9906C13.4473 20.1356 13.4208 20.3647 13.5308 20.4792L13.5345 20.483Z" fill="#173159"/>
</g>
<defs>
<clipPath id="clip0_347_1056">
<rect width="33" height="34" fill="white"/>
</clipPath>
</defs>
</svg>
