<svg width="109" height="121" viewBox="0 0 109 121" fill="none" xmlns="http://www.w3.org/2000/svg">
<path d="M42.5041 70.511C45.1937 72.6189 93.8992 43.7927 103.147 46.8959C104.378 47.3081 105.38 48.2639 106.197 49.2312C112.271 59.6745 103.889 63.288 96.4115 69.0004C79.8959 81.5949 45.6765 108.166 28.6346 116.758C23.1016 119.541 16.3366 121.714 10.1601 119.918C4.57652 118.306 1.3423 113.433 0.389993 107.937C-0.320756 103.84 -0.0777228 99.7602 1.26806 95.8204C2.85487 91.2174 4.76287 86.7419 6.50291 82.1971C8.08918 78.0803 9.66074 73.9524 11.247 69.8357C13.038 65.1789 14.8273 60.5092 16.6183 55.8523C18.4681 51.043 20.3162 46.2208 22.166 41.4115C23.9285 36.8374 25.6763 32.2521 27.4388 27.6779C29.1094 22.8139 31.0033 18.0381 32.8955 13.2494C33.6438 11.3482 34.5193 9.50869 35.1697 7.56812C35.7994 5.66978 36.4004 3.65701 37.8101 2.15288C38.9898 0.903151 40.6597 0.15242 42.3742 0.0264499C50.4757 -0.566223 50.96 9.10605 50.5008 14.8186C50.1138 19.6936 49.3753 24.5108 48.5997 29.3461C47.3154 37.2725 45.7187 45.1358 44.2311 53.0239C43.6291 56.2063 43.0418 59.4 42.5619 62.6054C42.2569 64.6571 41.8975 66.795 42.02 68.881C42.0472 69.3767 42.0607 70.1634 42.4894 70.4998L42.5041 70.511Z" fill="#F6A626"/>
</svg>
