<svg width="531" height="614" viewBox="0 0 531 614" fill="none" xmlns="http://www.w3.org/2000/svg">
<g opacity="0.29">
<path d="M247.234 403.611C204.344 423.538 166.189 453.489 123.992 474.442C119.154 476.845 103.492 485.484 99.9248 479.105C94.5797 469.566 101.625 465.593 107.907 460.138C141.055 431.309 189.643 399.447 226.496 373.69C239.046 364.921 251.134 354.827 264.97 348.114C270.8 345.282 276.599 345.723 282.146 349.091C287.018 352.059 290.896 357.195 290.617 363.109C290.482 365.902 289.662 368.623 288.863 371.297C284.383 386.071 279.813 400.82 275.333 415.594C271.307 428.899 267.279 442.191 263.253 455.497C261.89 459.974 260.528 464.451 259.181 468.939C254.939 481.088 240.795 479.899 239.473 467.267C238.524 458.23 249.92 405.361 247.234 403.611Z" fill="#F29028"/>
<path d="M36.3861 270.299C36.4702 269.983 36.5845 269.677 36.6987 269.37C37.9955 266.133 41.5783 264.407 45.027 264.945L238.796 295.04C245.928 296.143 252.314 300.452 255.405 306.946C262.59 322.013 244.771 330.084 229.498 338.833C209.884 350.078 180.962 366.017 160.587 374.723C149.433 379.493 138.86 380.945 139.602 370.853C139.902 366.647 142.161 362.816 145.458 360.174L192.856 322.18L43.1722 281.477C38.2885 280.152 35.0543 275.182 36.3887 270.312L36.3861 270.299Z" fill="#F29028"/>
<path d="M292.963 235.202C287.373 232.069 278.411 213.679 274.783 207.13C264.151 187.908 251.542 164.776 242.529 144.964C238.472 136.048 229.157 113.33 247.804 120.23C255.116 122.94 292.084 177.295 294.769 174.23C294.65 170.388 295.318 166.47 296.252 162.759C306.069 123.419 317.017 68.4364 330.933 31.9067C336.156 18.1895 345.502 10.1557 349.92 22.0678C351.327 25.8408 351.553 29.9495 350.91 33.9203L320.314 224.155C317.725 235.518 302.695 240.68 292.952 235.218L292.963 235.202Z" fill="#F79230"/>
<path d="M212.282 226.727C212.141 224.909 210.178 222.36 209.295 220.696C208.188 218.601 207.056 216.526 205.911 214.453C203.633 210.305 201.29 206.183 198.91 202.097C194.144 193.897 189.199 185.803 184.229 177.727C174.274 161.579 164.139 145.535 154.789 129.03C147.551 116.247 140.773 103.177 134.971 89.6679C133.278 85.7391 134.877 80.9222 138.804 79.229C148.204 75.1672 158.759 92.9189 164.938 100.883C195.34 140.064 228.298 186.03 256.236 227.088C260.295 233.047 269.912 245.556 270.065 251.946C270.237 259.277 264.865 267.144 257.769 269.317C253.876 270.503 249.929 269.727 246.014 269.116C242.128 268.514 238.297 267.516 234.488 266.557C232.568 266.073 230.659 265.572 228.765 265.07C221.606 263.165 214.487 261.095 207.408 258.933C190.358 253.734 173.446 248.052 156.43 242.732C154.972 242.276 153.544 241.743 152.117 241.223C148.157 239.763 141.234 238.358 138.967 234.036C136.426 229.165 139.379 221.579 144.787 220.237C147.108 219.66 149.559 219.93 151.939 220.199C158.965 221.014 166.005 221.825 173.049 222.579C183.314 223.673 193.582 224.781 203.834 225.878C206.591 226.177 209.539 226.811 212.298 226.738L212.282 226.727Z" fill="#F6A626"/>
<path d="M348.813 428.357C345.993 424.641 340.125 425.797 338.855 430.278C338.86 430.306 338.835 430.325 338.84 430.352C337.878 433.722 337.035 437.113 336.178 440.506C334.777 446.052 333.393 451.608 332.005 457.151C330.261 464.157 328.53 471.16 326.771 478.168C324.837 485.921 322.885 493.663 320.906 501.411C318.921 509.202 316.903 516.971 314.83 524.75C312.934 531.869 311.006 538.966 308.987 546.037C306.552 554.568 304.028 563.086 300.847 571.386C300.078 573.41 299.188 575.172 297.131 576.141C295.734 576.801 294.163 576.995 292.628 576.998C290.291 577.008 287.798 576.493 286.13 574.868C283.974 572.78 283.791 569.653 283.838 566.838C283.897 563.552 284.274 560.277 284.609 557.01C285.02 553.074 285.594 549.165 286.035 545.237C291.658 495.566 302.024 428.161 312.892 379.601C316.847 361.943 333.763 349.519 347.297 365.853C357.104 377.688 390.862 442.328 396.927 458.011C400.553 467.414 397.116 481.473 387.101 474.661C382.183 471.31 360.064 443.154 348.829 428.368L348.813 428.357Z" fill="#F6A626"/>
<path d="M422.262 368.879C421.927 369.396 422.41 370.441 422.575 370.936C423.072 372.362 423.72 373.745 424.378 375.112C426.443 379.453 428.747 383.692 431.049 387.918C433.864 393.112 436.728 398.268 439.54 403.448C442.133 408.23 444.726 413.011 447.135 417.884C449.175 422.016 451.115 426.153 451.859 430.741C452.141 432.477 452.124 434.311 451.405 435.923C450.765 437.348 449.617 438.515 448.29 439.345C446.799 440.292 444.707 441.336 442.921 440.947C441.092 440.551 439.3 439.353 437.866 438.23C435.405 436.306 433.281 433.95 431.197 431.657C430.564 430.966 429.943 430.259 429.298 429.585C417.993 417.619 374.462 365.706 368.688 353.542C359.086 333.307 374.239 323.641 393.866 326.88C414.533 330.293 463.22 345.963 483.553 353.896C486.502 355.047 489.529 355.999 492.333 357.448C494.834 358.74 497.861 360.614 498.591 363.516C499.118 365.561 498.321 367.683 497.444 369.608C496.957 370.693 496.422 371.758 495.693 372.704C493.243 375.832 489.555 375.117 486.045 374.809C483.165 374.567 480.309 374.222 477.424 373.953C472.901 373.536 468.377 373.12 463.853 372.704C462.624 372.593 461.381 372.485 460.149 372.361C452.904 371.702 445.672 371.04 438.427 370.381C433.64 369.943 428.839 369.507 424.053 369.069C423.526 369.025 422.765 368.799 422.236 368.898L422.262 368.879Z" fill="#F29028"/>
<path d="M389.423 193.171C392.416 195.295 442.865 161.662 452.924 164.504C454.264 164.882 455.388 165.856 456.316 166.853C463.393 177.764 454.636 182.102 446.963 188.651C430.014 203.089 394.924 233.518 377.189 243.678C371.43 246.969 364.32 249.671 357.617 248.071C351.558 246.635 347.828 241.566 346.502 235.703C345.513 231.334 345.544 226.93 346.762 222.619C348.2 217.581 349.989 212.663 351.594 207.679C353.059 203.164 354.508 198.638 355.973 194.124C357.626 189.017 359.277 183.896 360.931 178.789C362.639 173.515 364.344 168.227 366.052 162.953C367.679 157.936 369.291 152.909 370.919 147.892C372.432 142.569 374.189 137.328 375.943 132.074C376.636 129.988 377.469 127.962 378.056 125.839C378.622 123.763 379.152 121.565 380.575 119.87C381.766 118.462 383.509 117.565 385.334 117.337C393.961 116.264 395.021 126.646 394.85 132.817C394.71 138.083 394.19 143.306 393.632 148.551C392.703 157.148 391.437 165.695 390.289 174.263C389.824 177.719 389.375 181.187 389.042 184.662C388.831 186.886 388.566 189.205 388.814 191.443C388.871 191.975 388.93 192.821 389.407 193.16L389.423 193.171Z" fill="#F6A626"/>
</g>
</svg>
