<svg width="180" height="186" viewBox="0 0 180 186" fill="none" xmlns="http://www.w3.org/2000/svg">
<g opacity="0.29">
<path d="M69.0674 121.626C49.111 125.906 30.3563 134.025 10.6117 138.712C8.34781 139.249 0.948922 141.292 -0.0521911 138.814C-1.55391 135.106 1.78155 134.157 4.91231 132.635C21.4362 124.591 44.8046 116.466 62.6597 109.742C68.74 107.454 74.7312 104.668 81.1922 103.187C83.9148 102.562 86.3563 103.089 88.4502 104.633C90.2883 105.992 91.5239 108.052 90.9201 110.12C90.6337 111.097 90.0606 112.004 89.4997 112.896C86.3752 117.82 83.214 122.73 80.0895 127.654C77.2792 132.089 74.4689 136.52 71.6587 140.955C70.7096 142.447 69.7606 143.939 68.8176 145.436C66.0096 149.449 60.0648 148.123 60.5352 143.583C60.8703 140.334 70.0714 122.416 69.0674 121.626Z" fill="#F29028"/>
<path d="M-10.0819 61.0858C-10.0201 60.98 -9.94619 60.8792 -9.87224 60.7783C-9.05295 59.7195 -7.38087 59.3403 -5.95159 59.751L74.363 82.787C77.3193 83.6331 79.6948 85.5622 80.4828 88.0511C82.3177 93.8265 74.0439 95.5313 66.8018 97.6385C57.5011 100.348 43.839 104.116 34.421 105.882C29.2649 106.849 24.6288 106.683 25.7732 103.171C26.246 101.707 27.5249 100.5 29.1498 99.7795L52.5128 89.4157L-8.09882 65.4637C-10.0767 64.6835 -11.0511 62.7231 -10.0819 61.0908L-10.0819 61.0858Z" fill="#F29028"/>
<path d="M68.63 56.9905C68.719 56.3402 68.089 55.3154 67.8481 54.6716C67.5469 53.8619 67.2335 53.0573 66.914 52.2527C66.2811 50.6435 65.6175 49.0395 64.9356 47.4456C63.5719 44.2477 62.1225 41.0754 60.6608 37.9083C57.7314 31.5739 54.7162 25.2651 52.0744 18.8439C50.0297 13.8708 48.2054 8.8262 46.8337 3.68894C46.4324 2.19457 47.5102 0.597952 49.3267 0.252417C53.6754 -0.577826 56.73 6.36047 58.7169 9.56564C68.4941 25.3353 78.8074 43.6616 87.3782 59.9353C88.6243 62.2974 91.7073 67.3263 91.2492 69.5902C90.722 72.1869 87.7823 74.6179 84.5728 74.9293C82.8122 75.0982 81.1897 74.5714 79.567 74.1051C77.9564 73.6437 76.4015 73.046 74.8527 72.4635C74.0722 72.1697 73.2978 71.8709 72.5295 71.572C69.6272 70.4413 66.7557 69.2551 63.9088 68.0385C57.0507 65.1117 50.2911 62.0233 43.4576 59.0562C42.8724 58.8019 42.3057 58.5223 41.7389 58.2477C40.1666 57.4789 37.3244 56.5393 36.7101 54.8696C36.0236 52.9886 37.9066 50.5018 40.3269 50.3752C41.3659 50.3203 42.391 50.5727 43.3857 50.8202C46.3207 51.5578 49.2618 52.2954 52.2091 53.0128C56.505 54.0568 60.8008 55.1057 65.0906 56.1497C66.2439 56.4318 67.4515 56.8446 68.6361 56.9955L68.63 56.9905Z" fill="#F6A626"/>
<path d="M110.435 136.866C109.535 135.375 106.934 135.406 106.024 136.906C106.024 136.916 106.011 136.921 106.011 136.931C105.324 138.058 104.686 139.2 104.042 140.342C102.989 142.208 101.942 144.08 100.895 145.946C99.5757 148.305 98.2624 150.665 96.9368 153.024C95.4749 155.635 94.0068 158.241 92.5265 160.847C91.04 163.468 89.5412 166.079 88.0179 168.69C86.6247 171.08 85.2192 173.459 83.777 175.824C82.0376 178.677 80.2616 181.52 78.2223 184.244C77.7279 184.909 77.2034 185.473 76.2451 185.683C75.594 185.826 74.907 185.794 74.2511 185.697C73.2518 185.551 72.229 185.209 71.6498 184.529C70.8998 183.654 71.0776 182.539 71.3283 181.55C71.6229 180.394 72.0522 179.263 72.4632 178.132C72.9614 176.77 73.5269 175.428 74.0372 174.071C80.51 156.91 90.4627 133.798 99.085 117.366C102.222 111.39 110.467 108.092 114.91 114.722C118.13 119.525 127.254 144.49 128.56 150.41C129.339 153.96 126.718 158.698 122.998 155.654C121.172 154.156 114.029 142.807 110.441 136.871L110.435 136.866Z" fill="#F6A626"/>
<path d="M146.69 120.592C146.504 120.753 146.625 121.153 146.655 121.338C146.75 121.873 146.914 122.402 147.083 122.927C147.609 124.59 148.247 126.233 148.884 127.871C149.66 129.884 150.462 131.886 151.238 133.894C151.954 135.747 152.67 137.599 153.3 139.473C153.833 141.061 154.322 142.645 154.264 144.311C154.243 144.941 154.085 145.587 153.646 146.109C153.256 146.571 152.669 146.909 152.035 147.117C151.32 147.355 150.341 147.59 149.61 147.338C148.861 147.081 148.193 146.544 147.673 146.056C146.779 145.219 146.065 144.252 145.362 143.31C145.148 143.025 144.941 142.736 144.721 142.457C140.872 137.511 126.529 116.409 125.059 111.749C122.615 103.995 129.881 101.557 138.001 103.958C146.55 106.486 166.066 115.134 174.102 119.236C175.268 119.831 176.483 120.361 177.562 121.051C178.524 121.667 179.664 122.523 179.738 123.593C179.796 124.348 179.281 125.046 178.749 125.668C178.452 126.02 178.136 126.361 177.747 126.648C176.444 127.595 174.927 127.106 173.453 126.772C172.242 126.503 171.051 126.198 169.84 125.918C167.942 125.481 166.043 125.044 164.145 124.607C163.629 124.49 163.106 124.372 162.59 124.249C159.549 123.552 156.514 122.855 153.473 122.158C151.464 121.697 149.448 121.236 147.439 120.774C147.218 120.725 146.911 120.596 146.677 120.597L146.69 120.592Z" fill="#F29028"/>
</g>
</svg>
