<svg width="376" height="185" viewBox="0 0 376 185" fill="none" xmlns="http://www.w3.org/2000/svg">
<path d="M62.2413 122.955C46.7213 126.925 32.1513 134.525 16.8013 138.885C15.0413 139.385 9.29131 141.285 8.50131 138.935C7.32131 135.415 9.9113 134.535 12.3413 133.105C25.1713 125.555 43.3313 117.965 57.2013 111.675C61.9213 109.535 66.5813 106.925 71.6013 105.545C73.7213 104.965 75.6213 105.475 77.2613 106.945C78.7013 108.235 79.6713 110.195 79.2113 112.155C78.9913 113.075 78.5513 113.935 78.1113 114.775C75.7013 119.425 73.2613 124.055 70.8413 128.705C68.6713 132.885 66.5013 137.075 64.3313 141.255C63.6013 142.665 62.8713 144.075 62.1413 145.485C59.9713 149.275 55.3413 147.995 55.6913 143.695C55.9413 140.625 63.0313 123.705 62.2413 122.945V122.955Z" fill="#F29028"/>
<path d="M0.299981 65.3629C0.349981 65.2629 0.399985 65.1629 0.459985 65.0729C1.08998 64.0729 2.38999 63.7229 3.49999 64.1129L66.06 86.2629C68.36 87.0729 70.22 88.9129 70.84 91.2729C72.29 96.7429 65.86 98.3229 60.24 100.293C53.02 102.813 42.41 106.333 35.09 107.963C31.09 108.853 27.48 108.683 28.35 105.363C28.71 103.983 29.7 102.843 30.96 102.163L49.09 92.4429L1.84998 69.5129C0.309984 68.7629 -0.460013 66.9029 0.289987 65.3629H0.299981Z" fill="#F29028"/>
<path d="M88.0288 69.6139C86.3688 68.2239 84.5288 61.5539 83.7288 59.1539C81.3888 52.1039 78.6388 43.6339 76.8688 36.4839C76.0688 33.2639 74.3888 25.1339 80.1688 28.5939C82.4288 29.9439 91.3488 50.3139 92.4288 49.4639C92.6288 48.1839 93.0988 46.9139 93.6388 45.7439C99.3588 33.2839 106.429 15.6839 113.339 4.40388C115.929 0.173885 119.539 -1.91611 120.269 2.31389C120.499 3.65389 120.319 5.03389 119.859 6.31389L97.8188 67.6439C96.2488 71.2639 90.9288 72.0439 88.0288 69.6139Z" fill="#F79230"/>
<path d="M61.5286 61.9041C61.5986 61.2841 61.0986 60.3241 60.9086 59.7141C60.6686 58.9541 60.4286 58.1841 60.1686 57.4241C59.6686 55.9041 59.1486 54.3841 58.6086 52.8741C57.5286 49.8441 56.3986 46.8441 55.2386 43.8441C52.9286 37.8541 50.5586 31.8841 48.4786 25.8041C46.8686 21.0941 45.4286 16.3241 44.3386 11.4741C44.0186 10.0641 44.8486 8.55412 46.2686 8.23412C49.6486 7.46412 52.0586 14.0342 53.6186 17.0742C61.2986 32.0142 69.4086 49.3641 76.1486 64.7641C77.1286 67.0041 79.5487 71.7641 79.1987 73.8941C78.7987 76.3441 76.5186 78.6341 74.0286 78.9041C72.6586 79.0541 71.3886 78.5541 70.1286 78.1041C68.8686 77.6541 67.6586 77.0941 66.4486 76.5341C65.8386 76.2541 65.2386 75.9641 64.6386 75.6841C62.3686 74.6041 60.1386 73.4741 57.9086 72.3141C52.5586 69.5241 47.2786 66.5741 41.9486 63.7441C41.4886 63.5041 41.0486 63.2341 40.6086 62.9741C39.3786 62.2441 37.1586 61.3441 36.6786 59.7641C36.1386 57.9841 37.5886 55.6441 39.4786 55.5341C40.2886 55.4841 41.0886 55.7241 41.8586 55.9641C44.1486 56.6741 46.4386 57.3842 48.7386 58.0742C52.0886 59.0842 55.4386 60.0841 58.7886 61.0941C59.6886 61.3641 60.6286 61.7641 61.5486 61.9041H61.5286Z" fill="#F6A626"/>
<path d="M94.449 137.564C93.749 136.144 91.729 136.164 91.029 137.584C91.029 137.584 91.029 137.604 91.019 137.604C90.489 138.664 89.999 139.754 89.499 140.834C88.689 142.594 87.889 144.364 87.079 146.134C86.069 148.364 85.059 150.594 84.039 152.824C82.919 155.294 81.789 157.754 80.649 160.224C79.509 162.694 78.349 165.174 77.189 167.634C76.119 169.894 75.039 172.144 73.929 174.384C72.589 177.084 71.229 179.774 69.659 182.344C69.279 182.974 68.879 183.504 68.129 183.704C67.629 183.834 67.089 183.804 66.579 183.704C65.799 183.564 65.009 183.234 64.559 182.584C63.969 181.754 64.109 180.694 64.299 179.754C64.519 178.654 64.849 177.594 65.159 176.514C65.539 175.224 65.969 173.954 66.359 172.674C71.309 156.434 78.929 134.564 85.549 119.014C87.959 113.364 94.339 110.274 97.809 116.574C100.329 121.144 107.509 144.854 108.539 150.464C109.159 153.834 107.149 158.314 104.249 155.414C102.829 153.984 97.239 143.194 94.439 137.554L94.449 137.564Z" fill="#F6A626"/>
<path d="M122.641 122.304C122.501 122.454 122.591 122.834 122.621 123.014C122.691 123.524 122.821 124.024 122.961 124.524C123.381 126.104 123.881 127.674 124.371 129.234C124.981 131.154 125.611 133.064 126.221 134.974C126.781 136.734 127.341 138.504 127.841 140.294C128.261 141.804 128.651 143.314 128.611 144.894C128.601 145.494 128.471 146.104 128.141 146.604C127.841 147.044 127.391 147.364 126.901 147.554C126.351 147.774 125.591 147.994 125.021 147.754C124.441 147.504 123.921 146.994 123.511 146.524C122.821 145.724 122.261 144.804 121.711 143.904C121.551 143.634 121.381 143.354 121.211 143.084C118.211 138.364 107.031 118.234 105.881 113.794C103.961 106.404 109.571 104.124 115.861 106.444C122.481 108.884 137.611 117.194 143.841 121.124C144.741 121.694 145.681 122.204 146.521 122.864C147.271 123.454 148.151 124.274 148.211 125.294C148.261 126.014 147.861 126.674 147.451 127.264C147.221 127.594 146.981 127.924 146.681 128.194C145.671 129.094 144.501 128.614 143.361 128.294C142.421 128.034 141.501 127.734 140.561 127.464C139.091 127.044 137.621 126.614 136.151 126.194C135.751 126.074 135.351 125.964 134.951 125.844C132.601 125.164 130.241 124.494 127.891 123.814C126.331 123.364 124.771 122.924 123.221 122.474C123.051 122.424 122.811 122.304 122.631 122.304H122.641Z" fill="#F29028"/>
<path d="M122.64 61.9237C123.51 62.8137 142.44 54.7537 145.61 56.3337C146.03 56.5437 146.35 56.9337 146.59 57.3337C148.27 61.4137 145.08 62.3137 142.11 64.0137C135.56 67.7637 121.95 75.7137 115.4 77.9937C113.28 78.7337 110.73 79.1837 108.6 78.2337C106.67 77.3737 105.74 75.4537 105.66 73.4137C105.6 71.8937 105.89 70.4337 106.56 69.0737C107.35 67.4837 108.26 65.9537 109.1 64.4037L111.41 60.1637C112.28 58.5637 113.15 56.9637 114.02 55.3637C114.89 53.7637 115.82 52.0537 116.72 50.4037C117.58 48.8337 118.43 47.2637 119.29 45.6837C120.13 44.0037 121.04 42.3637 121.95 40.7237C122.31 40.0737 122.72 39.4437 123.04 38.7737C123.36 38.1037 123.67 37.4137 124.25 36.9437C124.73 36.5537 125.37 36.3537 126 36.3937C128.94 36.5737 128.65 40.1037 128.21 42.1437C127.84 43.8937 127.34 45.5937 126.82 47.3137C125.97 50.1237 125.02 52.8937 124.1 55.6737C123.73 56.7937 123.36 57.9237 123.04 59.0637C122.83 59.7937 122.6 60.5537 122.54 61.3037C122.53 61.4837 122.49 61.7737 122.63 61.9137L122.64 61.9237Z" fill="#F6A626"/>
<path d="M182.411 95.923C178.021 95.923 174.351 95.143 171.411 93.583C168.471 92.023 166.281 89.843 164.851 87.023C163.421 84.213 162.711 80.9431 162.711 77.2231C162.711 73.5031 163.421 70.2531 164.851 67.4731C166.281 64.6931 168.461 62.523 171.411 60.963C174.351 59.403 178.021 58.623 182.411 58.623C186.801 58.623 190.531 59.403 193.471 60.963C196.411 62.523 198.601 64.6931 200.031 67.4731C201.461 70.2531 202.171 73.5031 202.171 77.2231C202.171 80.9431 201.461 84.203 200.031 87.023C198.601 89.833 196.421 92.023 193.471 93.583C190.531 95.143 186.841 95.923 182.411 95.923ZM182.411 89.173C185.861 89.173 188.381 88.123 189.961 86.013C191.541 83.903 192.331 80.9731 192.331 77.2231C192.331 73.4731 191.501 70.3331 189.841 68.3531C188.181 66.3731 185.701 65.3831 182.421 65.3831C179.141 65.3831 176.731 66.3731 175.061 68.3531C173.401 70.3331 172.571 73.2931 172.571 77.2231C172.571 81.1531 173.361 83.903 174.941 86.013C176.521 88.123 179.011 89.173 182.421 89.173H182.411Z" fill="white"/>
<path d="M208.57 59.1738H227.44C230.42 59.1738 233.07 59.6438 235.37 60.5838C237.67 61.5238 239.46 62.8738 240.74 64.6438C242.02 66.4138 242.66 68.4839 242.66 70.8539C242.66 73.6539 241.81 75.9838 240.1 77.8638C238.39 79.7438 236.05 81.0338 233.06 81.7438L233.51 79.6238L244.26 95.3938H233.13L224.94 82.5438H218.42V95.3938H208.57V59.1738ZM226.48 75.7938C228.4 75.7938 229.93 75.3738 231.09 74.5438C232.24 73.7138 232.82 72.4839 232.82 70.8539C232.82 69.7539 232.54 68.8338 231.99 68.0938C231.44 67.3538 230.69 66.8038 229.75 66.4438C228.81 66.0938 227.77 65.9138 226.62 65.9138H218.43V75.7938H226.49H226.48Z" fill="white"/>
<path d="M248.67 59.1738H258.52V95.3938H248.67V59.1738Z" fill="white"/>
<path d="M275.401 65.9124V73.2923H292.611V80.0323H275.401V88.6324H295.801V95.3723H265.551V59.1523H295.481V65.9023H275.401V65.9124Z" fill="white"/>
<path d="M301.369 59.0625H310.319L328.799 82.0625L328.609 59.0625H337.629V95.3325H328.039L310.129 73.1325L310.389 95.3325H301.369V59.0625Z" fill="white"/>
<path d="M364.111 65.9121V95.3921H354.261V65.9121H342.561V59.1621H375.821V65.9121H364.111Z" fill="white"/>
<path d="M187.67 122.872L192.32 114.742H202.63L188.07 139.752V150.962H177.83V139.752L163.27 114.742H173.97L178.69 122.872L183.14 131.952H183.27L187.66 122.872H187.67Z" fill="white"/>
<path d="M217.648 121.492V128.872H235.528V135.622H217.648V144.222H238.858V150.962H207.408V114.742H238.528V121.492H217.648Z" fill="white"/>
<path d="M244.641 114.742H257.471L263.721 125.952L268.371 134.772H268.441L272.831 125.952L278.811 114.742H291.841V150.962H281.601L281.801 126.582L271.301 145.332H264.251L253.751 126.582L254.021 150.962H244.651V114.742H244.641Z" fill="white"/>
<path d="M309.398 121.492V128.872H327.278V135.622H309.398V144.222H330.608V150.962H299.158V114.742H330.278V121.492H309.398Z" fill="white"/>
<path d="M336.391 114.633H345.701L364.911 137.633L364.711 114.633H374.091V150.903H364.121L345.501 128.703L345.771 150.903H336.401V114.633H336.391Z" fill="white"/>
</svg>
