<svg width="376" height="185" viewBox="0 0 376 185" fill="none" xmlns="http://www.w3.org/2000/svg">
<path d="M62.2403 122.955C46.7203 126.925 32.1503 134.525 16.8003 138.885C15.0403 139.385 9.29034 141.285 8.50034 138.935C7.32034 135.415 9.91033 134.535 12.3403 133.105C25.1703 125.555 43.3303 117.965 57.2003 111.675C61.9203 109.535 66.5803 106.925 71.6003 105.545C73.7203 104.965 75.6203 105.475 77.2603 106.945C78.7003 108.235 79.6703 110.195 79.2103 112.155C78.9903 113.075 78.5503 113.935 78.1103 114.775C75.7003 119.425 73.2603 124.055 70.8403 128.705C68.6703 132.885 66.5003 137.075 64.3303 141.255C63.6003 142.665 62.8703 144.075 62.1403 145.485C59.9703 149.275 55.3403 147.995 55.6903 143.695C55.9403 140.625 63.0303 123.705 62.2403 122.945V122.955Z" fill="#F29028"/>
<path d="M0.299981 65.3629C0.349981 65.2629 0.399985 65.1629 0.459985 65.0729C1.08998 64.0729 2.38999 63.7229 3.49999 64.1129L66.06 86.2629C68.36 87.0729 70.22 88.9129 70.84 91.2729C72.29 96.7429 65.86 98.3229 60.24 100.293C53.02 102.813 42.41 106.333 35.09 107.963C31.09 108.853 27.48 108.683 28.35 105.363C28.71 103.983 29.7 102.843 30.96 102.163L49.09 92.4429L1.84998 69.5129C0.309984 68.7629 -0.460013 66.9029 0.289987 65.3629H0.299981Z" fill="#F29028"/>
<path d="M88.0298 69.6139C86.3698 68.2239 84.5298 61.5539 83.7298 59.1539C81.3898 52.1039 78.6398 43.6339 76.8698 36.4839C76.0698 33.2639 74.3898 25.1339 80.1698 28.5939C82.4298 29.9439 91.3498 50.3139 92.4298 49.4639C92.6298 48.1839 93.0998 46.9139 93.6398 45.7439C99.3598 33.2839 106.43 15.6839 113.34 4.40388C115.93 0.173885 119.54 -1.91611 120.27 2.31389C120.5 3.65389 120.32 5.03389 119.86 6.31389L97.8198 67.6439C96.2498 71.2639 90.9298 72.0439 88.0298 69.6139Z" fill="#F79230"/>
<path d="M61.5295 61.9041C61.5995 61.2841 61.0995 60.3241 60.9095 59.7141C60.6695 58.9541 60.4295 58.1841 60.1695 57.4241C59.6695 55.9041 59.1495 54.3841 58.6095 52.8741C57.5295 49.8441 56.3995 46.8441 55.2395 43.8441C52.9295 37.8541 50.5595 31.8841 48.4795 25.8041C46.8695 21.0941 45.4295 16.3241 44.3395 11.4741C44.0195 10.0641 44.8495 8.55413 46.2695 8.23413C49.6495 7.46413 52.0595 14.0342 53.6195 17.0742C61.2995 32.0142 69.4095 49.3641 76.1495 64.7641C77.1295 67.0041 79.5496 71.7641 79.1996 73.8941C78.7996 76.3441 76.5195 78.6341 74.0295 78.9041C72.6595 79.0541 71.3895 78.5541 70.1295 78.1041C68.8695 77.6541 67.6595 77.0941 66.4495 76.5341C65.8395 76.2541 65.2395 75.9641 64.6395 75.6841C62.3695 74.6041 60.1395 73.4741 57.9095 72.3141C52.5595 69.5241 47.2795 66.5741 41.9495 63.7441C41.4895 63.5041 41.0495 63.2341 40.6095 62.9741C39.3795 62.2441 37.1595 61.3441 36.6795 59.7641C36.1395 57.9841 37.5895 55.6441 39.4795 55.5341C40.2895 55.4841 41.0895 55.7241 41.8595 55.9641C44.1495 56.6741 46.4395 57.3842 48.7395 58.0742C52.0895 59.0842 55.4395 60.0841 58.7895 61.0941C59.6895 61.3641 60.6295 61.7641 61.5495 61.9041H61.5295Z" fill="#F6A626"/>
<path d="M94.45 137.564C93.75 136.144 91.73 136.164 91.03 137.584C91.03 137.584 91.03 137.604 91.02 137.604C90.49 138.664 90 139.754 89.5 140.834C88.69 142.594 87.89 144.364 87.08 146.134C86.07 148.364 85.06 150.594 84.04 152.824C82.92 155.294 81.79 157.754 80.65 160.224C79.51 162.694 78.35 165.174 77.19 167.634C76.12 169.894 75.04 172.144 73.93 174.384C72.59 177.084 71.23 179.774 69.66 182.344C69.28 182.974 68.88 183.504 68.13 183.704C67.63 183.834 67.09 183.804 66.58 183.704C65.8 183.564 65.01 183.234 64.56 182.584C63.97 181.754 64.11 180.694 64.3 179.754C64.52 178.654 64.85 177.594 65.16 176.514C65.54 175.224 65.97 173.954 66.36 172.674C71.31 156.434 78.93 134.564 85.55 119.014C87.96 113.364 94.34 110.274 97.81 116.574C100.33 121.144 107.51 144.854 108.54 150.464C109.16 153.834 107.15 158.314 104.25 155.414C102.83 153.984 97.24 143.194 94.44 137.554L94.45 137.564Z" fill="#F6A626"/>
<path d="M122.64 122.304C122.5 122.454 122.59 122.834 122.62 123.014C122.69 123.524 122.82 124.024 122.96 124.524C123.38 126.104 123.88 127.674 124.37 129.234C124.98 131.154 125.61 133.064 126.22 134.974C126.78 136.734 127.34 138.504 127.84 140.294C128.26 141.804 128.65 143.314 128.61 144.894C128.6 145.494 128.47 146.104 128.14 146.604C127.84 147.044 127.39 147.364 126.9 147.554C126.35 147.774 125.59 147.994 125.02 147.754C124.44 147.504 123.92 146.994 123.51 146.524C122.82 145.724 122.26 144.804 121.71 143.904C121.55 143.634 121.38 143.354 121.21 143.084C118.21 138.364 107.03 118.234 105.88 113.794C103.96 106.404 109.57 104.124 115.86 106.444C122.48 108.884 137.61 117.194 143.84 121.124C144.74 121.694 145.68 122.204 146.52 122.864C147.27 123.454 148.15 124.274 148.21 125.294C148.26 126.014 147.86 126.674 147.45 127.264C147.22 127.594 146.98 127.924 146.68 128.194C145.67 129.094 144.5 128.614 143.36 128.294C142.42 128.034 141.5 127.734 140.56 127.464C139.09 127.044 137.62 126.614 136.15 126.194C135.75 126.074 135.35 125.964 134.95 125.844C132.6 125.164 130.24 124.494 127.89 123.814C126.33 123.364 124.77 122.924 123.22 122.474C123.05 122.424 122.81 122.304 122.63 122.304H122.64Z" fill="#F29028"/>
<path d="M122.64 61.9237C123.51 62.8137 142.44 54.7537 145.61 56.3337C146.03 56.5437 146.35 56.9337 146.59 57.3337C148.27 61.4137 145.08 62.3137 142.11 64.0137C135.56 67.7637 121.95 75.7137 115.4 77.9937C113.28 78.7337 110.73 79.1837 108.6 78.2337C106.67 77.3737 105.74 75.4537 105.66 73.4137C105.6 71.8937 105.89 70.4337 106.56 69.0737C107.35 67.4837 108.26 65.9537 109.1 64.4037L111.41 60.1637C112.28 58.5637 113.15 56.9637 114.02 55.3637C114.89 53.7637 115.82 52.0537 116.72 50.4037C117.58 48.8337 118.43 47.2637 119.29 45.6837C120.13 44.0037 121.04 42.3637 121.95 40.7237C122.31 40.0737 122.72 39.4437 123.04 38.7737C123.36 38.1037 123.67 37.4137 124.25 36.9437C124.73 36.5537 125.37 36.3537 126 36.3937C128.94 36.5737 128.65 40.1037 128.21 42.1437C127.84 43.8937 127.34 45.5937 126.82 47.3137C125.97 50.1237 125.02 52.8937 124.1 55.6737C123.73 56.7937 123.36 57.9237 123.04 59.0637C122.83 59.7937 122.6 60.5537 122.54 61.3037C122.53 61.4837 122.49 61.7737 122.63 61.9137L122.64 61.9237Z" fill="#F6A626"/>
<path d="M182.41 95.923C178.02 95.923 174.35 95.143 171.41 93.583C168.47 92.023 166.28 89.843 164.85 87.023C163.42 84.213 162.71 80.9431 162.71 77.2231C162.71 73.5031 163.42 70.2531 164.85 67.4731C166.28 64.6931 168.46 62.523 171.41 60.963C174.35 59.403 178.02 58.623 182.41 58.623C186.8 58.623 190.53 59.403 193.47 60.963C196.41 62.523 198.6 64.6931 200.03 67.4731C201.46 70.2531 202.17 73.5031 202.17 77.2231C202.17 80.9431 201.46 84.203 200.03 87.023C198.6 89.833 196.42 92.023 193.47 93.583C190.53 95.143 186.84 95.923 182.41 95.923ZM182.41 89.173C185.86 89.173 188.38 88.123 189.96 86.013C191.54 83.903 192.33 80.9731 192.33 77.2231C192.33 73.4731 191.5 70.3331 189.84 68.3531C188.18 66.3731 185.7 65.3831 182.42 65.3831C179.14 65.3831 176.73 66.3731 175.06 68.3531C173.4 70.3331 172.57 73.2931 172.57 77.2231C172.57 81.1531 173.36 83.903 174.94 86.013C176.52 88.123 179.01 89.173 182.42 89.173H182.41Z" fill="#183159"/>
<path d="M208.57 59.1738H227.44C230.42 59.1738 233.07 59.6438 235.37 60.5838C237.67 61.5238 239.46 62.8738 240.74 64.6438C242.02 66.4138 242.66 68.4839 242.66 70.8539C242.66 73.6539 241.81 75.9838 240.1 77.8638C238.39 79.7438 236.05 81.0338 233.06 81.7438L233.51 79.6238L244.26 95.3938H233.13L224.94 82.5438H218.42V95.3938H208.57V59.1738ZM226.48 75.7938C228.4 75.7938 229.93 75.3738 231.09 74.5438C232.24 73.7138 232.82 72.4839 232.82 70.8539C232.82 69.7539 232.54 68.8338 231.99 68.0938C231.44 67.3538 230.69 66.8038 229.75 66.4438C228.81 66.0938 227.77 65.9138 226.62 65.9138H218.43V75.7938H226.49H226.48Z" fill="#183159"/>
<path d="M248.67 59.1738H258.52V95.3938H248.67V59.1738Z" fill="#183159"/>
<path d="M275.4 65.9124V73.2923H292.61V80.0323H275.4V88.6324H295.8V95.3723H265.55V59.1523H295.48V65.9023H275.4V65.9124Z" fill="#183159"/>
<path d="M301.37 59.0625H310.32L328.8 82.0625L328.61 59.0625H337.63V95.3325H328.04L310.13 73.1325L310.39 95.3325H301.37V59.0625Z" fill="#183159"/>
<path d="M364.11 65.9121V95.3921H354.26V65.9121H342.56V59.1621H375.82V65.9121H364.11Z" fill="#183159"/>
<path d="M187.67 122.872L192.32 114.742H202.63L188.07 139.752V150.962H177.83V139.752L163.27 114.742H173.97L178.69 122.872L183.14 131.952H183.27L187.66 122.872H187.67Z" fill="#183159"/>
<path d="M217.649 121.492V128.872H235.529V135.622H217.649V144.222H238.859V150.962H207.409V114.742H238.529V121.492H217.649Z" fill="#183159"/>
<path d="M244.64 114.742H257.47L263.72 125.952L268.37 134.772H268.44L272.83 125.952L278.81 114.742H291.84V150.962H281.6L281.8 126.582L271.3 145.332H264.25L253.75 126.582L254.02 150.962H244.65V114.742H244.64Z" fill="#183159"/>
<path d="M309.399 121.492V128.872H327.279V135.622H309.399V144.222H330.609V150.962H299.159V114.742H330.279V121.492H309.399Z" fill="#183159"/>
<path d="M336.39 114.633H345.7L364.91 137.633L364.71 114.633H374.09V150.903H364.12L345.5 128.703L345.77 150.903H336.4V114.633H336.39Z" fill="#183159"/>
</svg>
