<svg width="548" height="141" viewBox="0 0 548 141" fill="none" xmlns="http://www.w3.org/2000/svg">
<path d="M529.7 123.705L514.5 110.205L485.2 83.7048L503.5 57.7048C503.5 57.7048 510.8 47.4048 510.8 47.5048L498.3 46.4048L488.2 45.5048C479.5 44.7048 463.6 43.4048 448.4 42.8048L441.4 14.2048L440.3 9.50481L435.6 8.7048C378.4 -0.495197 278.1 0.00480592 273.8 0.00480592C269.5 0.00480592 169.2 -0.495197 112.1 8.7048L107.3 9.50481L106.2 14.2048L99.4 43.1048C91.2 43.4048 81.9 44.0048 71.5 44.8048C59.2 45.7048 50.4 46.6048 50 46.7048L37.8 48.0048L44.8 58.1048L63 84.2048C53.5 92.8048 33.1 111.305 33.1 111.305L18.4 124.405L0 140.505L24.3 136.905C53.8 132.505 90.1 130.605 111.5 130.605H118.7C118.7 130.605 118.8 124.905 118.8 122.905H118.9L119 115.905L154.7 113.005C193 109.705 225.9 106.905 274 106.905C322.9 106.905 356.8 109.705 396 113.005L429.6 115.705L429.7 122.605H429.8V123.205L429.9 130.405H437.1C461.6 130.405 497.5 133.005 524.1 136.705L547.7 139.905L529.7 123.705Z" fill="white"/>
<path d="M520.5 128.704L474.3 86.8041L495.5 56.7041C495.5 56.7041 466.7 53.7041 442.7 53.1041L434.5 19.1041C377.2 9.90408 273.9 10.5041 273.9 10.5041C273.9 10.5041 170.5 9.90408 113.2 19.1041L105.1 53.5041C81.2 54.1041 52.8 57.1041 52.8 57.1041L74.1 87.2041L27.9 129.104C55.8 125.504 88.4 123.304 111.6 123.304V122.204C111.6 122.404 111.7 122.604 111.6 122.804L111.8 109.204C172.6 104.704 209.4 99.6041 274 99.6041C338.6 99.6041 375.9 104.304 436.8 108.904L437 122.404C437 122.204 437 122.004 437 121.804V122.904C460.1 122.904 492.8 125.104 520.5 128.704Z" fill="black"/>
<path d="M435.9 49.7051C460.8 49.7051 495.5 53.3051 495.5 53.3051L474.3 83.5051L520.5 125.405C492.6 121.805 460 119.605 436.8 119.605L435.9 49.7051Z" fill="url(#paint0_linear_261_1027)"/>
<path d="M436.9 119.005C436.7 115.705 443.2 112.705 447.3 112.705C451.3 112.705 456.6 106.805 456.6 106.805C450.9 101.105 444.8 102.505 438.1 102.205L436.6 105.005L436.9 119.005Z" fill="url(#paint1_linear_261_1027)"/>
<path d="M112.4 50.1055C87.5 50.1055 52.8 53.7055 52.8 53.7055L74 83.8055L27.8 125.705C55.7 122.105 88.3 119.905 111.5 119.905L112.4 50.1055Z" fill="url(#paint2_linear_261_1027)"/>
<path d="M111.4 119.405C111.6 116.105 105.1 113.105 101 113.105C97 113.105 91.7 107.205 91.7 107.205C97.4 101.505 103.5 102.905 110.2 102.605L111.7 105.405L111.4 119.405Z" fill="url(#paint3_linear_261_1027)"/>
<path d="M456.6 107.005L434.4 15.9049C377.1 6.70486 273.8 7.30486 273.8 7.30486C273.8 7.30486 170.4 6.70486 113.1 15.9049L91.6 107.205C165 102.305 202.4 96.2049 273.8 96.2049C345.2 96.2049 383.2 102.005 456.6 107.005Z" fill="#ED1C24"/>
<path d="M130.2 47.3043C131.2 38.9043 130.2 35.7043 129.6 33.1043C132.1 32.7043 133.1 32.5043 136.2 32.2043C149.1 31.3043 159.9 30.9043 170.6 41.5043C175 47.4043 175.8 51.8043 175.3 57.9043C171.9 73.9043 161.2 84.2043 136.5 88.3043C130 89.2043 125.5 89.8043 119.4 90.6043C121.9 86.1043 123.7 83.3043 126 71.3043C127.7 62.1043 128.8 55.8043 130.2 47.3043ZM136.2 69.2043C135 76.5043 134.8 77.5043 134.5 82.7043C157.2 77.2043 162 67.4043 163.9 57.6043C164.5 48.9043 163.5 39.3043 141.6 36.7043C140.7 40.4043 140.2 43.6043 139.8 46.6043C138.6 54.9043 137.7 60.6043 136.2 69.2043Z" fill="#9C0A0E" stroke="#9C0A0E" stroke-width="2.25"/>
<path d="M223.3 27.1035C221.4 30.5035 220.1 32.9035 218.1 36.2035C210.2 33.4035 204.9 33.3035 197.4 33.7035C197 41.1035 196.5 46.2035 196 53.4035C203.6 53.1035 211.3 52.8035 218.7 52.6035C216.4 55.5035 214.9 57.6035 212.6 60.6035C204.4 58.9035 200.9 58.9035 195.5 58.8035C194.8 66.3035 194.4 71.6035 193.8 79.0035C203.4 78.5035 210.1 78.0035 226 73.4035C224.2 76.4035 222.5 79.4035 220.7 82.4035C207.6 82.9035 193.9 84.0035 180.7 84.9035C182.3 81.2035 183.6 78.4035 184.5 70.5035C185.4 60.5035 186.2 53.4035 187.1 43.1035C187.4 38.8035 187.2 34.3035 185.7 28.9035C198.6 28.2035 210.6 27.6035 223.3 27.1035Z" fill="#9C0A0E" stroke="#9C0A0E" stroke-width="2.25"/>
<path d="M247 26.9043C246.4 28.8043 246.3 29.2043 246.3 30.0043C246.4 32.6043 247.3 36.3043 248.8 40.1043C253.4 51.3043 256.7 59.0043 261.6 69.4043C267 59.2043 270.8 51.8043 276 40.9043C277.5 37.6043 278.8 34.0043 279 30.3043C279 29.4043 279 28.8043 278.2 26.4043C284.4 26.5043 288.6 26.6043 294.7 26.7043C290.9 31.2043 288.9 34.6043 286.5 39.9043C278.7 56.5043 273 67.5043 265 82.4043C262.4 82.4043 260 82.4043 257.4 82.5043C250.5 68.7043 246.2 58.4043 240.1 43.4043C239.3 41.5043 237.5 37.5043 235.5 33.6043C233.4 29.7043 233.1 29.4043 231 27.2043C236.9 27.1043 241 27.0043 247 26.9043Z" fill="#9C0A0E" stroke="#9C0A0E" stroke-width="2.25"/>
<path d="M324.8 26.8047C345.3 29.4047 352.5 40.9047 354.7 56.6047C354.2 75.9047 344.4 84.0047 325.7 84.6047C304.5 82.0047 295.9 70.6047 294.2 54.8047C295.5 41.1047 303.2 28.2047 324.8 26.8047ZM327.1 78.6047C341.6 77.6047 345.8 67.9047 346 58.3047C344.1 45.5047 336.9 35.1047 322.4 33.0047C309.8 33.9047 304.8 41.7047 304.1 53.7047C305.7 70.3047 314.6 77.1047 327.1 78.6047Z" fill="#9C0A0E" stroke="#9C0A0E" stroke-width="2.25"/>
<path d="M370.3 29.5047C371.9 32.4047 371.9 32.8047 378.2 39.4047C390.2 51.7047 398.7 60.1047 411.9 73.5047C410.3 63.6047 409.3 56.9047 407.9 47.6047C406 36.3047 405.2 35.3047 403.4 31.9047C407.9 32.3047 410.9 32.5047 415.3 32.8047C415.1 35.8047 414.9 37.6047 416 44.1047C417.9 54.9047 419 62.8047 421.2 74.6047C423.3 84.8047 424.8 87.1047 426.6 90.1047C421.9 89.5047 418.5 89.2047 413.8 88.8047C411.6 85.1047 409.4 82.7047 406.3 79.6047C393.7 66.9047 385.6 58.8047 374.4 47.1047C375.3 55.2047 375.8 61.0047 376.8 69.3047C377.6 74.8047 378.8 80.7047 381.6 86.1047C376.3 85.7047 372.5 85.4047 367.2 85.2047C368.4 78.9047 367.8 71.7047 367.7 70.6047C366.4 58.2047 365.7 49.4047 364.5 36.9047C360.7 32.9047 359.7 32.2047 355.2 28.8047C360.8 29.0047 364.7 29.2047 370.3 29.5047Z" fill="#9C0A0E" stroke="#9C0A0E" stroke-width="2.25"/>
<path d="M130.2 44.3043C131.2 35.9043 130.2 32.7043 129.6 30.1043C132.1 29.7043 133.1 29.5043 136.2 29.2043C149.1 28.3043 159.9 27.9043 170.6 38.5043C175 44.4043 175.8 48.8043 175.3 54.9043C171.9 70.9043 161.2 81.2043 136.5 85.3043C130 86.2043 125.5 86.8043 119.4 87.6043C121.9 83.1043 123.7 80.3043 126 68.3043C127.7 59.1043 128.8 53.0043 130.2 44.3043ZM136.2 66.3043C135 73.6043 134.8 74.6043 134.5 79.8043C157.2 74.3043 162 64.5043 163.9 54.7043C164.5 46.0043 163.5 36.4043 141.6 33.8043C140.7 37.5043 140.2 40.7043 139.8 43.7043C138.6 51.9043 137.7 57.7043 136.2 66.3043Z" fill="white" stroke="white" stroke-width="2.25"/>
<path d="M223.3 24.2031C221.4 27.6031 220.1 30.0031 218.1 33.3031C210.2 30.5031 204.9 30.4031 197.4 30.8031C197 38.2031 196.5 43.3031 196 50.5031C203.6 50.2031 211.3 49.9031 218.7 49.7031C216.4 52.6031 214.9 54.7031 212.6 57.7031C204.4 56.0031 200.9 56.0031 195.5 55.9031C194.8 63.4031 194.4 68.7031 193.8 76.1031C203.4 75.6031 210.1 75.1031 226 70.5031C224.2 73.5031 222.5 76.5031 220.7 79.5031C207.6 80.0031 193.9 81.1031 180.7 82.0031C182.3 78.3031 183.6 75.5031 184.5 67.6031C185.4 57.6031 186.2 50.5031 187.1 40.2031C187.4 35.9031 187.2 31.4031 185.7 26.0031C198.6 25.3031 210.6 24.6031 223.3 24.2031Z" fill="white" stroke="white" stroke-width="2.25"/>
<path d="M247 24.0039C246.4 25.9039 246.3 26.3039 246.3 27.1039C246.4 29.7039 247.3 33.4039 248.8 37.2039C253.4 48.4039 256.7 56.1039 261.6 66.5039C267 56.3039 270.8 48.9039 276 38.0039C277.5 34.7039 278.8 31.1039 279 27.4039C279 26.5039 279 25.9039 278.2 23.5039C284.4 23.6039 288.6 23.7039 294.7 23.8039C290.9 28.3039 288.9 31.7039 286.5 37.0039C278.7 53.5039 273 64.6039 265 79.5039C262.4 79.5039 260 79.5039 257.4 79.6039C250.5 65.8039 246.2 55.5039 240.1 40.5039C239.3 38.6039 237.5 34.6039 235.5 30.7039C233.4 26.8039 233.1 26.5039 231 24.3039C236.9 24.2039 241 24.1039 247 24.0039Z" fill="white" stroke="white" stroke-width="2.25"/>
<path d="M324.8 23.9043C345.3 26.5043 352.5 38.0043 354.7 53.7043C354.2 73.0043 344.4 81.1043 325.7 81.7043C304.5 79.1043 295.9 67.7043 294.2 51.9043C295.5 38.2043 303.2 25.3043 324.8 23.9043ZM327.1 75.7043C341.6 74.7043 345.8 65.0043 346 55.4043C344.1 42.6043 336.9 32.2043 322.4 30.1043C309.8 31.0043 304.8 38.8043 304.1 50.8043C305.7 67.4043 314.6 74.2043 327.1 75.7043Z" fill="white" stroke="white" stroke-width="2.25"/>
<path d="M370.3 26.6043C371.9 29.5043 371.9 29.9043 378.2 36.5043C390.2 48.8043 398.7 57.2043 411.9 70.6043C410.3 60.7043 409.3 54.0043 407.9 44.7043C406 33.4043 405.2 32.4043 403.4 29.0043C407.9 29.4043 410.9 29.6043 415.3 29.9043C415.1 32.9043 414.9 34.7043 416 41.2043C417.9 52.0043 419 59.9043 421.2 71.7043C423.3 81.9043 424.8 84.2043 426.6 87.2043C421.9 86.6043 418.5 86.3043 413.8 85.9043C411.6 82.2043 409.4 79.8043 406.3 76.7043C393.7 64.0043 385.6 55.9043 374.4 44.2043C375.3 52.3043 375.8 58.1043 376.8 66.4043C377.6 71.9043 378.8 77.8043 381.6 83.2043C376.3 82.8043 372.5 82.5043 367.2 82.3043C368.4 76.0043 367.8 68.8043 367.7 67.7043C366.4 55.3043 365.7 46.5043 364.5 34.0043C360.7 30.0043 359.7 29.3043 355.2 25.9043C360.8 26.0043 364.7 26.2043 370.3 26.6043Z" fill="white" stroke="white" stroke-width="2.25"/>
<defs>
<linearGradient id="paint0_linear_261_1027" x1="500.468" y1="83.4778" x2="440.81" y2="94.3822" gradientUnits="userSpaceOnUse">
<stop stop-color="#ED1C24"/>
<stop offset="0.1589" stop-color="#E91C23"/>
<stop offset="0.3005" stop-color="#E01B22"/>
<stop offset="0.4356" stop-color="#D2181F"/>
<stop offset="0.5666" stop-color="#BF141B"/>
<stop offset="0.6947" stop-color="#A60E12"/>
<stop offset="0.8206" stop-color="#880203"/>
<stop offset="0.9425" stop-color="#670000"/>
<stop offset="1" stop-color="#540000"/>
</linearGradient>
<linearGradient id="paint1_linear_261_1027" x1="436.639" y1="110.56" x2="456.444" y2="110.721" gradientUnits="userSpaceOnUse">
<stop stop-color="#ED1C24"/>
<stop offset="0.1589" stop-color="#E91C23"/>
<stop offset="0.3005" stop-color="#E01B22"/>
<stop offset="0.4356" stop-color="#D2181F"/>
<stop offset="0.5666" stop-color="#BF141B"/>
<stop offset="0.6947" stop-color="#A60E12"/>
<stop offset="0.8206" stop-color="#880203"/>
<stop offset="0.9425" stop-color="#670000"/>
<stop offset="1" stop-color="#540000"/>
</linearGradient>
<linearGradient id="paint2_linear_261_1027" x1="47.8064" y1="83.8563" x2="107.464" y2="94.7607" gradientUnits="userSpaceOnUse">
<stop stop-color="#ED1C24"/>
<stop offset="0.1589" stop-color="#E91C23"/>
<stop offset="0.3005" stop-color="#E01B22"/>
<stop offset="0.4356" stop-color="#D2181F"/>
<stop offset="0.5666" stop-color="#BF141B"/>
<stop offset="0.6947" stop-color="#A60E12"/>
<stop offset="0.8206" stop-color="#880203"/>
<stop offset="0.9425" stop-color="#670000"/>
<stop offset="1" stop-color="#540000"/>
</linearGradient>
<linearGradient id="paint3_linear_261_1027" x1="111.637" y1="110.94" x2="91.8318" y2="111.1" gradientUnits="userSpaceOnUse">
<stop stop-color="#ED1C24"/>
<stop offset="0.1589" stop-color="#E91C23"/>
<stop offset="0.3005" stop-color="#E01B22"/>
<stop offset="0.4356" stop-color="#D2181F"/>
<stop offset="0.5666" stop-color="#BF141B"/>
<stop offset="0.6947" stop-color="#A60E12"/>
<stop offset="0.8206" stop-color="#880203"/>
<stop offset="0.9425" stop-color="#670000"/>
<stop offset="1" stop-color="#540000"/>
</linearGradient>
</defs>
</svg>
