<?xml version="1.0" encoding="UTF-8" standalone="no"?>
<svg
   xmlns:dc="http://purl.org/dc/elements/1.1/"
   xmlns:cc="http://creativecommons.org/ns#"
   xmlns:rdf="http://www.w3.org/1999/02/22-rdf-syntax-ns#"
   xmlns:svg="http://www.w3.org/2000/svg"
   xmlns="http://www.w3.org/2000/svg"
   xmlns:sodipodi="http://sodipodi.sourceforge.net/DTD/sodipodi-0.dtd"
   xmlns:inkscape="http://www.inkscape.org/namespaces/inkscape"
   width="1000.0023"
   height="428.10855"
   viewBox="0 0 264.58392 113.27038"
   version="1.1"
   id="svg8"
   inkscape:version="1.0.2 (e86c870879, 2021-01-15, custom)"
   sodipodi:docname="Caffino.svg">
  <defs
     id="defs2" />
  <sodipodi:namedview
     id="base"
     pagecolor="#ffffff"
     bordercolor="#666666"
     borderopacity="1.0"
     inkscape:pageopacity="0.0"
     inkscape:pageshadow="2"
     inkscape:zoom="0.35355339"
     inkscape:cx="527.44183"
     inkscape:cy="174.02709"
     inkscape:document-units="mm"
     inkscape:current-layer="layer1"
     inkscape:document-rotation="0"
     showgrid="false"
     showguides="false"
     units="px"
     inkscape:window-width="1366"
     inkscape:window-height="715"
     inkscape:window-x="-8"
     inkscape:window-y="-8"
     inkscape:window-maximized="1" />
  <metadata
     id="metadata5">
    <rdf:RDF>
      <cc:Work
         rdf:about="">
        <dc:format>image/svg+xml</dc:format>
        <dc:type
           rdf:resource="http://purl.org/dc/dcmitype/StillImage" />
        <dc:title></dc:title>
      </cc:Work>
    </rdf:RDF>
  </metadata>
  <g
     inkscape:label="Layer 1"
     inkscape:groupmode="layer"
     id="layer1"
     transform="translate(666.57326,645.86347)">
    <g
       id="g1007"
       transform="matrix(1.0666928,0,0,1.0666928,44.455668,43.074473)">
      <path
         style="fill:#00692c;fill-opacity:1;stroke-width:0.0522689"
         d="m -540.58638,-629.56857 c -0.83369,-0.0164 -1.52168,-0.0347 -1.52886,-0.0408 -0.007,-0.006 -0.0131,-0.0704 -0.0131,-0.1429 0,-0.0821 0.0823,-0.22117 0.21818,-0.36854 l 0.21818,-0.2367 0.036,-7.3542 0.036,-7.3542 -0.22805,-0.26698 c -0.24062,-0.28169 -0.28755,-0.45691 -0.13775,-0.51439 0.13244,-0.0508 4.20571,0.029 4.31336,0.0845 0.14999,0.0774 0.10602,0.20816 -0.16347,0.48615 l -0.25493,0.26299 -0.17053,7.3605 -0.17052,7.3605 0.21638,0.22048 c 0.11901,0.12126 0.21639,0.26781 0.21639,0.32565 0,0.19446 -0.10043,0.23123 -0.59848,0.21913 -0.26017,-0.006 -1.15515,-0.0249 -1.98884,-0.0412 z"
         id="path975" />
      <path
         style="fill:#00692c;fill-opacity:1;stroke-width:0.0522689"
         d="m -556.80283,-629.02506 c -0.11925,-0.0531 -0.0678,-0.26354 0.12691,-0.51848 l 0.19225,-0.25177 -0.58438,-7.34781 -0.58438,-7.34781 -0.26125,-0.23521 c -0.28954,-0.26069 -0.3447,-0.45037 -0.1436,-0.49387 0.3368,-0.0729 4.1764,-0.31836 4.29105,-0.27436 0.15461,0.0593 0.0977,0.26498 -0.13692,0.49529 l -0.22339,0.21924 0.11861,1.94773 c 0.46098,7.56949 0.64178,10.45886 0.65529,10.47237 0.009,0.009 0.61468,-0.0178 1.34695,-0.0585 0.73227,-0.0407 1.83633,-0.0903 2.45348,-0.11018 l 1.12208,-0.0362 0.25087,-0.23466 c 0.22266,-0.20827 0.2648,-0.22831 0.37474,-0.17822 0.12329,0.0562 0.12401,0.0618 0.15584,1.1971 0.0176,0.62737 0.0433,1.36412 0.057,1.63722 0.0138,0.27311 0.005,0.52829 -0.0193,0.56707 -0.0337,0.0536 -0.33743,0.0817 -1.26637,0.117 -2.34963,0.0894 -5.8356,0.29133 -7.57272,0.43868 -0.15812,0.0134 -0.31688,0.0113 -0.35282,-0.005 z"
         id="path973" />
      <path
         style="fill:#00692c;fill-opacity:1;stroke-width:0.0522689"
         d="m -523.80803,-628.55263 c -2.103,-0.24573 -7.49654,-0.70092 -8.31385,-0.70165 -0.47951,-4e-4 -0.46159,0.0782 -0.36255,-1.59074 l 0.0864,-1.45557 0.38473,-0.55466 c 2.21873,-3.19878 3.76556,-5.3281 6.00225,-8.26253 0.36079,-0.47336 0.64998,-0.86665 0.64264,-0.874 -0.0399,-0.0399 -5.01364,-0.43391 -5.48269,-0.43431 -0.21194,-2e-4 -0.27871,0.0274 -0.45785,0.18926 -0.219,0.19785 -0.44477,0.24819 -0.52749,0.1176 -0.0621,-0.098 -0.0578,-0.34157 0.0315,-1.79674 0.0424,-0.68995 0.0773,-1.31831 0.0776,-1.39636 5.1e-4,-0.0813 0.0396,-0.16267 0.092,-0.19055 0.25177,-0.13392 10.67838,0.75827 10.84839,0.92829 0.0302,0.0302 -0.0155,0.60208 -0.11991,1.50069 l -0.16869,1.45191 -0.71586,0.8915 c -1.01335,1.26199 -1.40108,1.7528 -2.24992,2.84806 -1.41856,1.83038 -4.288,5.69536 -4.288,5.77572 0,0.0337 0.2933,0.0662 1.69874,0.18819 0.68995,0.0599 1.79529,0.1663 2.4563,0.23645 l 1.20185,0.12756 0.27192,-0.18729 c 0.34168,-0.23532 0.48604,-0.21362 0.48793,0.0734 6.7e-4,0.10587 -0.0731,0.85107 -0.1641,1.65602 -0.12567,1.11211 -0.18485,1.47922 -0.24648,1.52887 -0.0446,0.0359 -0.0942,0.0626 -0.1103,0.0592 -0.0161,-0.003 -0.49964,-0.0611 -1.07459,-0.12828 z"
         id="path971" />
      <path
         style="fill:#00692c;fill-opacity:1;stroke-width:0.0522689"
         d="m -571.50608,-627.27315 c -0.0491,-0.0918 -0.029,-0.15733 0.1254,-0.40739 l 0.18393,-0.298 -1.21181,-7.27882 -1.21181,-7.27882 -0.27442,-0.20879 c -0.29866,-0.22724 -0.3511,-0.38282 -0.1568,-0.46521 0.45422,-0.19261 9.81054,-1.48756 9.92451,-1.37359 0.0635,0.0635 0.42468,3.19139 0.38641,3.34658 -0.0423,0.17168 -0.20944,0.14869 -0.53153,-0.0731 l -0.27696,-0.19076 -1.51845,0.19412 c -1.93273,0.24707 -3.60663,0.48375 -3.63716,0.51428 -0.0234,0.0234 0.44251,3.29074 0.47373,3.32196 0.009,0.009 0.34209,-0.0322 0.74047,-0.0914 0.39838,-0.0592 1.25253,-0.17797 1.89811,-0.26405 1.28128,-0.17086 1.20334,-0.14163 1.49956,-0.56237 0.0902,-0.12819 0.28885,-0.15617 0.37094,-0.0523 0.0626,0.0792 0.50329,3.67657 0.46321,3.78103 -0.0479,0.12492 -0.31236,0.0828 -0.54237,-0.0863 l -0.21774,-0.16013 -1.39983,0.18808 c -1.80346,0.24231 -2.3088,0.3181 -2.34192,0.35122 -0.0292,0.0292 0.47444,3.53839 0.51339,3.57734 0.013,0.013 0.69109,-0.0698 1.50679,-0.18403 0.8157,-0.11425 1.91365,-0.26054 2.43989,-0.32509 l 0.95679,-0.11736 0.21106,-0.25209 c 0.21109,-0.25213 0.34999,-0.30956 0.45173,-0.18675 0.0816,0.0985 0.43618,3.28675 0.37387,3.36183 -0.0281,0.0339 -0.19769,0.0772 -0.37688,0.0964 -1.60176,0.17121 -5.30794,0.68453 -7.37368,1.02129 -0.71406,0.1164 -1.3189,0.21165 -1.34409,0.21165 -0.0252,0 -0.0721,-0.0492 -0.10434,-0.10939 z"
         id="path969" />
      <path
         style="fill:#00692c;fill-opacity:1;stroke-width:0.0522689"
         d="m -513.61558,-627.13828 c -0.0287,-0.0116 -0.81671,-0.14226 -1.75101,-0.29046 -0.93431,-0.14819 -1.72815,-0.29321 -1.76408,-0.32225 -0.12274,-0.0992 -0.0654,-0.23265 0.19388,-0.4513 0.1823,-0.15371 0.26784,-0.2686 0.28825,-0.38713 0.0288,-0.16748 1.20674,-8.06268 1.80703,-12.11201 0.1726,-1.16429 0.3227,-2.1577 0.33355,-2.20757 0.0109,-0.0499 -0.0449,-0.17996 -0.124,-0.28909 -0.31459,-0.43427 -0.32274,-0.58721 -0.0313,-0.58721 0.16746,0 1.67203,0.22807 3.29524,0.49951 0.45997,0.0769 0.86571,0.16353 0.90164,0.19245 0.13511,0.10877 0.0653,0.24783 -0.21918,0.43673 -0.19215,0.12758 -0.29385,0.23381 -0.31327,0.32721 -0.0308,0.14815 -0.27421,1.58634 -1.59563,9.42749 l -0.84315,5.00313 0.18139,0.26934 c 0.23069,0.34256 0.2009,0.48675 -0.1037,0.50199 -0.11187,0.006 -0.22691,7.9e-4 -0.25566,-0.0108 z"
         id="path967" />
      <path
         id="path963"
         style="fill:#00692c;fill-opacity:1;stroke-width:0.0522689"
         d="m -501.22783,-624.37217 c -0.69786,-0.1084 -1.88963,-0.41147 -2.4692,-0.62791 -1.7779,-0.66398 -2.75774,-1.58871 -3.16224,-2.98435 -0.10508,-0.36255 -0.11772,-0.51753 -0.11429,-1.40077 l 0.004,-0.99311 0.55912,-2.71798 c 0.92987,-4.52023 0.97589,-4.72832 1.15889,-5.24033 0.24992,-0.69925 0.56242,-1.21747 1.03812,-1.72152 0.34813,-0.36887 0.48544,-0.47255 0.88857,-0.67098 0.79638,-0.39197 1.14328,-0.46066 2.33237,-0.46181 0.82955,-7.9e-4 1.13911,0.0207 1.6633,0.11547 3.41438,0.61734 5.4202,1.95511 5.83986,3.89483 0.11044,0.51046 0.0832,1.63843 -0.0537,2.22879 -0.15291,0.65902 -1.84768,6.84065 -2.02056,7.36992 -0.34757,1.06411 -0.99186,2.07892 -1.60619,2.52988 -0.38992,0.28623 -1.01353,0.5541 -1.54562,0.66391 -0.57582,0.11885 -1.79986,0.12662 -2.51227,0.016 z m 1.36848,-3.42686 c 0.57722,-0.21597 1.04203,-0.85009 1.31589,-1.79524 0.25195,-0.86953 1.31672,-5.21031 1.3672,-5.57372 0.1005,-0.72348 -0.11047,-1.38225 -0.5879,-1.83575 -0.46301,-0.4398 -1.33648,-0.75515 -2.24244,-0.80959 -1.05344,-0.0633 -1.66383,0.3762 -2.06768,1.48882 -0.17608,0.48509 -1.3215,5.6523 -1.35774,6.12502 -0.0508,0.66341 0.17854,1.35497 0.57808,1.74271 0.62604,0.60755 2.20299,0.95393 2.99459,0.65775 z" />
      <path
         id="path959"
         style="fill:#00692c;fill-opacity:1;stroke-width:0.0522689"
         d="m -588.40378,-623.48751 c -0.0663,-0.0663 -0.0343,-0.22539 0.10113,-0.50143 l 0.13597,-0.27725 -0.8456,-3.13446 c -0.87542,-3.24499 -0.997,-3.69547 -1.88292,-6.97623 -0.84521,-3.13 -1.09772,-4.07267 -1.09772,-4.09798 0,-0.013 -0.14113,-0.10943 -0.31361,-0.21421 -0.24241,-0.14726 -0.31362,-0.21882 -0.31362,-0.31519 0,-0.10882 0.0449,-0.13787 0.35282,-0.22846 0.99057,-0.29139 5.9718,-1.54256 7.07926,-1.77814 1.08849,-0.23155 2.19901,-0.24125 3.04149,-0.0266 0.43722,0.11141 1.09515,0.43885 1.45317,0.72321 0.59564,0.4731 1.0791,1.207 1.37421,2.08612 0.0752,0.22399 0.4687,2.04654 0.87447,4.05012 l 0.73777,3.64287 0.004,0.86243 c 0.005,0.91681 -0.0398,1.18502 -0.30341,1.83767 -0.42232,1.04554 -1.31517,1.89232 -2.49469,2.36598 -0.53302,0.21404 -0.63069,0.24055 -2.7893,0.75719 -0.94868,0.22705 -2.4488,0.60325 -3.33361,0.836 -1.64282,0.43214 -1.71949,0.44887 -1.78004,0.38833 z m 4.29802,-4.19439 c 1.4751,-0.36373 1.82855,-0.52002 2.28089,-1.00859 0.49439,-0.53401 0.68348,-1.05057 0.63595,-1.73738 -0.017,-0.24525 -0.28064,-1.55209 -0.6319,-3.13193 -0.68376,-3.07529 -0.7222,-3.18981 -1.24627,-3.71345 -0.41869,-0.41835 -0.75853,-0.55927 -1.43093,-0.59335 -0.53334,-0.027 -0.56586,-0.0215 -2.24877,0.38495 -1.01385,0.24484 -1.20592,0.30597 -1.18948,0.37859 0.032,0.14144 2.32044,9.32072 2.3769,9.53421 0.0291,0.11006 0.0844,0.19601 0.126,0.19601 0.0408,0 0.63822,-0.13908 1.32761,-0.30906 z" />
      <path
         style="fill:#00692c;fill-opacity:1;stroke-width:0.0522689"
         d="m -494.92447,-560.44627 c -0.0879,-0.074 -0.18606,-0.22192 -0.21806,-0.32874 -0.10723,-0.35791 -0.0117,-0.53614 0.70869,-1.3224 l 0.65434,-0.71416 -0.001,-23.90453 -10e-4,-23.90454 -0.65422,-0.7579 c -0.35982,-0.41685 -0.67673,-0.81236 -0.70424,-0.87891 -0.10412,-0.25189 -0.0605,-0.48003 0.1277,-0.66825 l 0.17771,-0.17772 5.66335,2e-4 c 5.41649,2e-4 5.67018,0.004 5.82015,0.0968 0.13426,0.0827 0.26689,0.35129 0.92264,1.86842 0.42122,0.9745 2.33481,5.39407 4.25243,9.82125 1.91762,4.42718 4.09784,9.46069 4.84494,11.18556 0.74709,1.72488 1.3679,3.14594 1.37956,3.15792 0.0117,0.012 0.0212,-5.30817 0.0212,-11.82257 v -11.84434 l -0.62089,-0.72665 c -0.34149,-0.39966 -0.64726,-0.77593 -0.6795,-0.83616 -0.13169,-0.24606 -0.0259,-0.65077 0.21407,-0.81884 0.10397,-0.0728 0.79026,-0.0816 6.3962,-0.0816 6.25528,0 6.28027,3.9e-4 6.4162,0.10734 0.075,0.059 0.16337,0.19715 0.19626,0.30691 0.10063,0.33589 0.0234,0.47753 -0.72928,1.33788 -0.076,0.0869 -0.2499,0.29054 -0.38645,0.45262 l -0.24828,0.2947 v 23.89652 23.89652 l 0.65958,0.71383 c 0.36276,0.39261 0.6803,0.76829 0.70563,0.83484 0.07,0.18383 0.0552,0.4676 -0.0332,0.63861 -0.17096,0.3306 0.22471,0.3119 -6.6015,0.3119 h -6.21555 l -0.13877,-0.10915 c -0.18485,-0.14541 -0.29348,-0.36651 -0.29348,-0.59732 0,-0.25201 0.0517,-0.33778 0.53141,-0.88086 0.22518,-0.25495 0.40943,-0.48107 0.40943,-0.50247 0,-0.0354 -0.51214,-1.18972 -3.10785,-7.005 -0.46836,-1.0493 -2.39865,-5.37718 -4.28953,-9.6175 -1.89087,-4.24032 -3.46971,-7.75607 -3.50853,-7.81277 -0.0593,-0.0867 -0.0706,1.81661 -0.0706,11.96729 v 12.07038 l 0.70563,0.71213 0.70563,0.71213 v 0.28863 c 0,0.32238 -0.14039,0.59274 -0.36745,0.70764 -0.10108,0.0512 -1.46988,0.0655 -6.3059,0.0661 l -6.17679,7.9e-4 -0.15988,-0.13452 z"
         id="path957" />
      <path
         style="fill:#00692c;fill-opacity:1;stroke-width:0.0522689"
         d="m -513.51105,-560.37092 c -0.28065,-0.13989 -0.42268,-0.62194 -0.27015,-0.91691 0.0447,-0.0864 0.35308,-0.45466 0.68532,-0.81834 l 0.60408,-0.66124 v -23.94321 -23.94322 l -0.56189,-0.65445 c -0.30904,-0.35995 -0.61482,-0.72815 -0.6795,-0.81823 -0.21213,-0.2954 -0.11586,-0.78492 0.18097,-0.92016 0.0873,-0.0398 1.98236,-0.0567 6.34023,-0.0567 h 6.21573 l 0.18349,0.16111 c 0.19451,0.17078 0.30064,0.43794 0.25215,0.63473 -0.0342,0.13879 -0.29246,0.44884 -0.94798,1.13812 l -0.47224,0.49655 -0.002,23.95338 -0.002,23.95337 0.61416,0.60881 c 0.33779,0.33484 0.65516,0.66952 0.70528,0.74372 0.12129,0.17955 0.11582,0.48406 -0.0132,0.73701 -0.20009,0.39221 0.28955,0.36528 -6.56972,0.36134 -3.97992,-0.002 -6.19423,-0.022 -6.2618,-0.0556 z"
         id="path955" />
      <path
         style="fill:#00692c;fill-opacity:1;stroke-width:0.0522689"
         d="m -547.93212,-560.45548 c -0.18485,-0.16564 -0.26746,-0.45117 -0.20749,-0.71708 0.0421,-0.18685 0.12333,-0.28914 0.90201,-1.13642 l 0.45735,-0.49765 v -23.90834 -23.90834 l -0.62926,-0.73043 c -0.3461,-0.40173 -0.66622,-0.79893 -0.71138,-0.88267 -0.12336,-0.22875 -0.064,-0.54453 0.13605,-0.72326 l 0.16086,-0.14374 14.56915,2e-4 c 14.33387,2e-4 14.57185,0.002 14.7357,0.10174 0.0916,0.0559 0.19189,0.14892 0.22288,0.20683 0.0395,0.0738 0.0522,1.676 0.0425,5.35114 l -0.0138,5.24587 -0.12972,0.18929 c -0.14607,0.21317 -0.29857,0.29957 -0.5287,0.29957 -0.24974,0 -0.40003,-0.11006 -1.06564,-0.7804 l -0.62641,-0.63088 h -7.80197 -7.80196 v 5.46211 5.46211 h 5.84653 5.84654 l 0.2036,-0.22834 c 0.76391,-0.85669 1.09377,-1.18386 1.24179,-1.23164 0.25086,-0.081 0.552,0.0104 0.75202,0.22813 l 0.16988,0.18493 v 5.96203 c 0,6.54731 0.0182,6.17727 -0.31191,6.34797 -0.1827,0.0945 -0.55799,0.10082 -0.7155,0.0121 -0.062,-0.0349 -0.38753,-0.31634 -0.72344,-0.62538 l -0.61074,-0.56189 h -5.84938 -5.84939 v 9.65165 9.65163 l 0.43045,0.47548 c 0.23675,0.26151 0.53099,0.58132 0.65387,0.71068 0.29197,0.30738 0.37282,0.56143 0.27136,0.85261 -0.0477,0.13683 -0.13992,0.25905 -0.25269,0.33481 l -0.17761,0.11931 h -6.23758 -6.23759 z"
         id="path953" />
      <path
         style="fill:#00692c;fill-opacity:1;stroke-width:0.0522689"
         d="m -582.15885,-560.44412 c -0.19468,-0.16382 -0.28649,-0.42606 -0.23857,-0.68146 0.0373,-0.19895 0.26631,-0.48904 1.00797,-1.27692 l 0.36902,-0.39202 0.002,-23.91382 0.002,-23.91383 -0.60883,-0.70487 c -0.72441,-0.83868 -0.80198,-0.9566 -0.80223,-1.21971 0,-0.15931 0.0368,-0.23826 0.17752,-0.37895 l 0.17771,-0.17772 h 14.56474 c 12.91643,0 14.58208,0.009 14.71805,0.0793 0.32817,0.1697 0.31202,-0.11738 0.31076,5.52397 -10e-4,4.88861 -0.006,5.14837 -0.098,5.35121 -0.18072,0.3979 -0.54094,0.54688 -0.88352,0.3654 -0.0776,-0.0411 -0.42303,-0.35865 -0.76756,-0.70563 l -0.62638,-0.63086 h -7.80197 -7.80196 v 5.46211 5.46211 h 5.84273 5.84273 l 0.6601,-0.7243 c 0.71125,-0.78043 0.79749,-0.8343 1.17048,-0.73132 0.10981,0.0303 0.27721,0.13268 0.37199,0.22746 l 0.17233,0.17233 v 5.96142 c 0,4.11888 -0.0173,5.99855 -0.0558,6.0815 -0.0955,0.20531 -0.30897,0.32239 -0.63019,0.34563 -0.33498,0.0242 -0.29013,0.0551 -1.25498,-0.86445 l -0.39908,-0.38036 h -5.86013 -5.86013 v 9.66326 9.66326 l 0.65229,0.69906 c 0.6783,0.72695 0.79984,0.93334 0.72606,1.23287 -0.0197,0.0801 -0.0709,0.19983 -0.11379,0.26598 -0.18449,0.28486 0.13361,0.27174 -6.58939,0.27174 h -6.21859 z"
         id="path951" />
      <path
         id="path947"
         style="fill:#00692c;fill-opacity:1;stroke-width:0.0522689"
         d="m -626.75844,-560.39975 c -0.18811,-0.11675 -0.30697,-0.33504 -0.30697,-0.56379 0,-0.29994 -0.0261,-0.26483 1.16026,-1.5624 0.20036,-0.21916 0.26483,-0.3407 0.35039,-0.6606 0.24543,-0.91762 2.0038,-7.4614 2.69666,-10.03564 0.41396,-1.53802 0.93175,-3.46674 1.15065,-4.28606 0.2189,-0.81931 0.595,-2.21882 0.83578,-3.11 0.24078,-0.89119 0.74658,-2.77287 1.12401,-4.18152 0.37743,-1.40865 0.85106,-3.17273 1.05252,-3.92017 0.20145,-0.74745 0.49273,-1.82942 0.64728,-2.40438 0.15456,-0.57496 0.53073,-1.97446 0.83595,-3.11 0.30521,-1.13554 0.71643,-2.66441 0.9138,-3.39749 0.19738,-0.73307 0.99693,-3.70848 1.77677,-6.61202 0.77985,-2.90355 1.48708,-5.53164 1.57164,-5.8402 0.0846,-0.30857 0.15373,-0.5864 0.15373,-0.61741 0,-0.031 -0.19993,-0.38681 -0.44429,-0.79069 -0.38916,-0.64321 -0.44429,-0.76458 -0.44429,-0.97824 0,-0.13643 0.0359,-0.29523 0.0816,-0.36038 0.2009,-0.28683 -0.15852,-0.27268 6.92487,-0.27268 6.47113,0 6.5428,10e-4 6.68895,0.1052 0.18432,0.13125 0.33898,0.5147 0.28859,0.71548 -0.0201,0.0802 -0.25016,0.45162 -0.51121,0.82551 -0.26104,0.37388 -0.47236,0.71507 -0.46959,0.75819 0.003,0.0431 0.12258,0.51354 0.26624,1.04538 0.14367,0.53183 0.73471,2.73105 1.31343,4.88715 0.57872,2.15609 1.24921,4.64932 1.49,5.54051 0.24078,0.89119 0.61419,2.27893 0.82981,3.08387 0.49666,1.85414 1.8857,7.02555 3.20098,11.91733 0.21643,0.80494 0.56699,2.11036 0.77902,2.90093 0.49787,1.85627 1.35353,5.0406 1.95931,7.29152 0.26305,0.97743 0.6866,2.55334 0.94124,3.50202 0.25462,0.94868 0.68743,2.55987 0.96178,3.58043 0.27435,1.02055 0.63744,2.3713 0.80687,3.00168 l 0.30805,1.14613 0.30716,0.28863 c 0.77151,0.72497 1.07575,1.02326 1.14602,1.12358 0.17998,0.25696 0.0106,0.84425 -0.28795,0.99866 -0.13502,0.0698 -0.91013,0.0795 -6.3789,0.0795 -6.98523,0 -6.45303,0.0316 -6.61504,-0.39263 -0.15102,-0.39544 -0.0724,-0.5471 0.68469,-1.32094 0.35766,-0.36557 0.65049,-0.68117 0.65074,-0.70133 5.9e-4,-0.0368 -0.33943,-1.26624 -1.51437,-5.47772 -0.34888,-1.25053 -0.731,-2.62064 -0.84917,-3.04467 l -0.21484,-0.77096 h -5.84178 c -5.51803,0 -5.84335,0.005 -5.86994,0.0915 -0.0155,0.0503 -0.19169,0.70301 -0.39157,1.45046 -0.44445,1.66201 -1.0399,3.88193 -1.47213,5.48824 -0.17792,0.66121 -0.38939,1.44916 -0.46993,1.75101 l -0.14645,0.54883 0.65517,0.65977 c 0.60547,0.60972 0.65715,0.67725 0.68114,0.89015 0.0342,0.30376 -0.0868,0.58726 -0.30857,0.72244 -0.171,0.10425 -0.24537,0.10548 -6.3669,0.10429 -5.63368,-0.001 -6.20629,-0.009 -6.33119,-0.0864 z m 23.35096,-21.59055 c -0.0685,-0.2323 -0.58267,-2.05556 -0.93968,-3.33215 -0.35086,-1.25459 -0.96996,-3.46343 -2.0425,-7.28728 -0.18883,-0.67324 -0.35505,-1.23578 -0.36936,-1.2501 -0.0649,-0.0649 -0.0917,0.0243 -0.67371,2.23897 -0.1322,0.50309 -0.59403,2.2554 -1.0263,3.89404 -0.43227,1.63863 -0.88192,3.3439 -0.99924,3.7895 -0.11732,0.44559 -0.28107,1.05714 -0.3639,1.35899 -0.0828,0.30185 -0.15075,0.57823 -0.15094,0.61416 -5.9e-4,0.0516 0.69362,0.0653 3.29613,0.0653 3.11492,0 3.29498,-0.005 3.2695,-0.0915 z" />
      <path
         style="fill:#00692c;fill-opacity:1;stroke-width:0.0522689"
         d="m -488.3174,-544.09106 c -2.44393,-0.0968 -5.00728,-0.47932 -6.94341,-1.03613 -0.87056,-0.25037 -2.22979,-0.74371 -2.22979,-0.80932 0,-0.0212 0.27637,-0.1454 0.61416,-0.27602 4.90592,-1.89709 12.62927,-2.12357 18.1354,-0.53181 0.87372,0.25258 2.15803,0.7326 2.15803,0.80657 0,0.0736 -1.28245,0.55344 -2.14749,0.80351 -2.70117,0.78086 -6.30624,1.17315 -9.5869,1.0432 z"
         id="path945" />
      <path
         style="fill:#00692c;fill-opacity:1;stroke-width:0.0522689"
         d="m -599.80713,-544.10909 c -3.12195,-0.16923 -5.9626,-0.71729 -8.16703,-1.57571 -0.29467,-0.11474 -0.53576,-0.22858 -0.53576,-0.25296 0,-0.10882 1.65324,-0.68482 2.77026,-0.96518 5.67127,-1.42343 12.77827,-1.14336 17.52317,0.69054 0.33779,0.13055 0.61416,0.25414 0.61416,0.27464 0,0.0473 -1.06557,0.46018 -1.75101,0.67846 -1.6058,0.51137 -3.9281,0.92881 -6.11547,1.09927 -0.97481,0.076 -3.36,0.10396 -4.33832,0.0509 z"
         id="path943" />
      <path
         style="fill:#00692c;fill-opacity:1;stroke-width:0.0522689"
         d="m -520.14854,-540.91885 c -0.0399,-0.0646 0.0358,-0.20831 0.17744,-0.33645 0.10898,-0.0986 0.10937,-0.11202 0.10937,-3.71487 0,-1.98873 -0.0131,-3.62895 -0.029,-3.64492 -0.042,-0.042 -0.72713,0.6947 -0.82867,0.89105 -0.0506,0.0978 -0.12646,0.16595 -0.18485,0.16595 -0.11308,0 -0.13558,-0.16245 -0.18252,-1.31768 l -0.027,-0.66432 0.52764,-0.74695 c 0.29021,-0.41082 0.585,-0.79986 0.65509,-0.86455 0.12365,-0.11411 0.15973,-0.1176 1.21577,-0.1176 1.25691,0 1.32221,0.0204 1.05138,0.3289 l -0.15933,0.18145 v 4.7274 4.7274 l 0.13068,0.12276 c 0.0719,0.0675 0.13067,0.1657 0.13067,0.21819 0,0.0898 -0.0755,0.0954 -1.27751,0.0954 -0.77731,0 -1.28989,-0.02 -1.30914,-0.0512 z"
         id="path941" />
      <path
         style="fill:#00692c;fill-opacity:1;stroke-width:0.0522689"
         d="m -543.15418,-540.94449 c -0.0162,-0.0423 -0.0195,-0.61263 -0.007,-1.26752 0.0193,-1.0395 0.0364,-1.23384 0.13427,-1.53045 0.17483,-0.52961 0.46794,-0.98029 0.95183,-1.46353 0.48493,-0.48427 1.00577,-0.85735 2.086,-1.49424 1.03316,-0.60914 1.36341,-0.97174 1.36296,-1.49648 -5.2e-4,-0.5558 -0.61285,-1.09443 -1.25044,-1.09988 -0.35467,-0.003 -0.63951,0.12981 -0.90247,0.42087 -0.29536,0.32693 -0.44123,0.90462 -0.31048,1.22956 0.0851,0.21153 0.0733,0.29714 -0.0409,0.29714 -0.0551,0 -0.55215,-0.26244 -1.10457,-0.58321 l -1.00441,-0.5832 0.0297,-0.39313 c 0.0618,-0.81741 0.6244,-1.58835 1.48628,-2.03675 0.61905,-0.32206 1.11003,-0.43863 1.84304,-0.43757 1.07765,0.002 1.87079,0.30755 2.53734,0.97891 0.57851,0.58268 0.88108,1.29283 0.94716,2.22305 0.0581,0.81827 -0.17903,1.5281 -0.74945,2.24316 -0.49005,0.6143 -0.94222,0.96987 -2.03835,1.60287 -0.99374,0.57386 -1.44917,0.95748 -1.55659,1.31113 l -0.0357,0.11761 h 1.73392 1.73392 l 0.15529,-0.13068 c 0.0854,-0.0719 0.20053,-0.13067 0.25582,-0.13067 0.0962,0 0.10053,0.0501 0.10053,1.14992 v 1.14992 h -3.16391 c -2.73522,0 -3.16791,-0.0104 -3.1934,-0.0768 z"
         id="path939" />
      <path
         style="fill:#00692c;fill-opacity:1;stroke-width:0.0522689"
         d="m -559.48161,-540.9631 c 0,-0.0525 0.0588,-0.15067 0.13067,-0.21819 l 0.13067,-0.12275 v -4.01561 -4.0156 h -0.92529 -0.92528 l -0.16357,0.15854 c -0.1082,0.10488 -0.19344,0.14708 -0.25181,0.12468 -0.0795,-0.0305 -0.0868,-0.14059 -0.0741,-1.11244 l 0.0141,-1.0786 3.38546,-0.0135 3.38545,-0.0134 -0.0141,1.10677 c -0.01,0.77989 -0.0319,1.11272 -0.0745,1.12688 -0.0332,0.0111 -0.14283,-0.0522 -0.24354,-0.14067 l -0.18312,-0.16078 -0.90638,0.0143 -0.90638,0.0143 -0.0134,4.00223 -0.0134,4.00223 0.13099,0.12306 c 0.072,0.0677 0.13099,0.16601 0.13099,0.21849 0,0.0899 -0.0764,0.0954 -1.30672,0.0954 -1.23029,0 -1.30673,-0.006 -1.30673,-0.0954 z"
         id="path937" />
      <path
         style="fill:#00692c;fill-opacity:1;stroke-width:0.0522689"
         d="m -579.69184,-540.94876 c -0.0189,-0.0493 0.0233,-0.13915 0.10601,-0.22544 l 0.13747,-0.14348 v -4.75076 -4.75076 l -0.13747,-0.14348 c -0.0827,-0.0863 -0.12492,-0.17615 -0.10601,-0.22544 0.0281,-0.0733 0.33932,-0.0805 2.94692,-0.0684 l 2.91547,0.0135 0.0141,1.08582 c 0.0124,0.95161 0.004,1.08974 -0.0688,1.11763 -0.0521,0.02 -0.14604,-0.0294 -0.25267,-0.13273 l -0.16976,-0.16454 -1.51247,0.0139 -1.51247,0.0139 -0.0141,1.08458 -0.0141,1.08458 h 1.16848 1.16847 l 0.14262,-0.16006 c 0.0784,-0.088 0.17053,-0.15077 0.20464,-0.13941 0.045,0.015 0.0659,0.36064 0.0761,1.25898 0.0123,1.08806 0.004,1.24218 -0.0684,1.26999 -0.0499,0.0192 -0.13912,-0.0226 -0.22595,-0.10582 l -0.14348,-0.13746 h -1.16013 -1.16013 v 1.17605 1.17606 h 1.52941 1.5294 l 0.14474,-0.13421 c 0.0796,-0.0738 0.18521,-0.12642 0.23467,-0.11689 0.0816,0.0157 0.0899,0.11682 0.0899,1.08812 v 1.07079 l -2.91547,0.0135 c -2.6076,0.0121 -2.91879,0.005 -2.94692,-0.0685 z"
         id="path935" />
      <path
         id="path929"
         style="fill:#00692c;fill-opacity:1;stroke-width:0.0522689"
         d="m -510.68852,-540.79296 c -0.20123,-0.0437 -0.58204,-0.1858 -0.84622,-0.3157 -0.79827,-0.39251 -1.31586,-1.03855 -1.57046,-1.96019 -0.0723,-0.26163 -0.0919,-0.53179 -0.0906,-1.24858 0.002,-0.86463 0.01,-0.93757 0.14758,-1.33235 0.17351,-0.49632 0.42407,-0.92458 0.71837,-1.22785 l 0.21443,-0.22094 -0.15943,-0.34737 c -0.21012,-0.45782 -0.26636,-0.72454 -0.2679,-1.27049 -0.002,-0.77863 0.2366,-1.32435 0.82517,-1.88576 0.99732,-0.95127 2.70376,-1.06931 3.90753,-0.27029 0.38932,0.25841 0.8195,0.81752 0.96468,1.25379 0.22135,0.66514 0.14788,1.56334 -0.18373,2.24621 l -0.16952,0.34908 0.26742,0.2766 c 0.33815,0.34975 0.63134,0.8915 0.76474,1.41307 0.13491,0.52747 0.14458,1.67757 0.0188,2.23431 -0.24309,1.07586 -1.00726,1.87509 -2.13644,2.23439 -0.48449,0.15417 -1.83964,0.19479 -2.40437,0.0721 z m 1.67795,-2.13386 c 0.9038,-0.42084 1.1738,-1.50339 0.57165,-2.292 -0.53015,-0.69432 -1.68713,-0.72747 -2.33812,-0.067 -0.23728,0.24074 -0.35577,0.57196 -0.35577,0.99452 0,0.4509 0.1229,0.76839 0.41258,1.06579 0.29558,0.30346 0.58042,0.41433 1.07709,0.41924 0.2809,0.003 0.42783,-0.0252 0.63257,-0.12056 z m -0.25686,-5.03147 c 0.21215,-0.10067 0.41374,-0.38382 0.45936,-0.64519 0.0709,-0.40645 -0.36777,-0.88726 -0.80894,-0.88657 -0.23913,6e-4 -0.59767,0.16565 -0.70079,0.32303 -0.45355,0.6922 0.30335,1.56322 1.05037,1.20873 z" />
      <path
         id="path925"
         style="fill:#00692c;fill-opacity:1;stroke-width:0.0522689"
         d="m -530.40841,-540.812 c -1.24857,-0.30673 -2.25336,-1.319 -2.67533,-2.69526 -0.19676,-0.64173 -0.26275,-1.27792 -0.26307,-2.53641 -5.3e-4,-1.75049 0.11556,-2.44777 0.55619,-3.34271 0.45355,-0.92117 1.31857,-1.61494 2.35557,-1.88923 0.5421,-0.14339 1.5519,-0.15291 2.07961,-0.0196 1.0951,0.27663 1.8961,0.93785 2.406,1.98609 0.4684,0.96291 0.56656,1.61274 0.53445,3.53793 -0.0223,1.33656 -0.0326,1.46097 -0.16239,1.95032 -0.34715,1.30944 -1.0626,2.27097 -2.04279,2.74541 -0.23929,0.11582 -0.59669,0.24483 -0.79425,0.28668 -0.50309,0.10659 -1.51347,0.0948 -1.99399,-0.0232 z m 1.79163,-2.13195 c 0.47058,-0.24484 0.76401,-0.68138 0.97589,-1.45188 0.1024,-0.37237 0.11536,-0.54978 0.11837,-1.62034 0.004,-1.37038 -0.0548,-1.74904 -0.36833,-2.37565 -0.2601,-0.51991 -0.63586,-0.80122 -1.18921,-0.89028 -0.76443,-0.12303 -1.42242,0.26553 -1.78286,1.05284 -0.44648,0.97523 -0.52527,2.76355 -0.17235,3.91183 0.2236,0.72749 0.6298,1.26063 1.08843,1.42853 0.33164,0.12141 1.04788,0.0918 1.33006,-0.055 z" />
      <path
         style="fill:#00692c;fill-opacity:1;stroke-width:0.0522689"
         d="m -550.76587,-540.78224 c -0.6309,-0.23545 -1.01251,-0.93911 -0.86991,-1.60407 0.22478,-1.0481 1.5056,-1.43552 2.29739,-0.6949 0.70289,0.65748 0.5349,1.7788 -0.33289,2.22192 -0.276,0.14094 -0.82065,0.17927 -1.09459,0.077 z"
         id="path923" />
      <path
         style="fill:#00692c;fill-opacity:1;stroke-width:0.0522689"
         d="m -567.84465,-540.74414 c -0.76893,-0.14651 -1.54915,-0.49856 -1.9976,-0.90134 -0.29295,-0.26313 -0.6265,-0.74098 -0.72451,-1.03796 -0.0723,-0.21922 -0.16564,-0.12351 1.05708,-1.08458 0.42102,-0.33092 0.80627,-0.60168 0.85612,-0.60168 0.0797,0 0.0864,0.0372 0.0557,0.3091 -0.0347,0.30688 -0.0334,0.31106 0.18925,0.58092 0.33513,0.40626 0.7375,0.63352 1.17666,0.66461 0.50429,0.0357 0.77394,-0.0515 1.06782,-0.34539 0.29586,-0.29587 0.36889,-0.59076 0.22922,-0.92561 -0.18442,-0.44212 -0.5566,-0.69981 -1.61802,-1.12028 -0.83735,-0.33172 -1.2003,-0.51294 -1.73451,-0.86605 -1.10539,-0.73065 -1.5978,-1.68047 -1.43874,-2.7752 0.20143,-1.38632 1.40791,-2.33811 3.19922,-2.52385 1.22593,-0.12712 2.20922,0.20623 2.94199,0.99739 0.3125,0.3374 0.76735,1.0274 0.76277,1.15711 -0.003,0.0944 -1.81708,1.25574 -1.90715,1.22118 -0.0575,-0.0221 -0.0675,-0.0858 -0.0423,-0.2696 0.0321,-0.23428 0.0262,-0.2477 -0.22288,-0.50279 -0.35617,-0.36482 -0.68886,-0.52526 -1.15221,-0.55565 -1.10485,-0.0725 -1.66304,0.6689 -0.9533,1.2661 0.21141,0.1779 0.62987,0.38912 1.29925,0.65579 1.64115,0.65383 2.65481,1.39334 3.07484,2.24321 0.18254,0.36934 0.19449,0.42458 0.21214,0.98066 0.0231,0.72843 -0.0758,1.21833 -0.3601,1.78344 -0.37979,0.7549 -0.95072,1.24764 -1.74927,1.50969 -0.36927,0.12119 -0.51591,0.13889 -1.25445,0.15146 -0.45997,0.008 -0.89511,0.003 -0.96698,-0.0107 z"
         id="path921" />
      <path
         style="fill:#00692c;fill-opacity:1;stroke-width:0.0522689"
         d="m -650.71712,-539.92992 c -6.9756,-0.48805 -11.54467,-2.95279 -13.94716,-7.52364 -0.75601,-1.43834 -1.28801,-3.13429 -1.62769,-5.1888 -0.0941,-0.56899 -0.18943,-1.59552 -0.23903,-2.57315 -0.0382,-0.75224 -0.05,-7.84134 -0.0375,-22.52793 0.0201,-23.57674 -0.004,-21.86536 0.32925,-23.83466 1.00828,-5.96593 4.23595,-9.63431 9.90899,-11.26199 3.33624,-0.95722 8.09244,-1.2489 12.32966,-0.75612 4.78083,0.556 8.31404,2.19296 10.59673,4.90953 1.54158,1.83459 2.55965,4.21353 3.04454,7.11418 0.21251,1.27126 0.27214,2.09218 0.29981,4.12742 0.0301,2.21358 0.0284,2.22629 -0.31282,2.41279 -0.15854,0.0866 -0.51017,0.0924 -5.68567,0.0924 -5.22923,0 -5.52418,-0.005 -5.66061,-0.0943 -0.30117,-0.19734 -0.43673,-0.63731 -0.28825,-0.93554 0.0329,-0.066 0.36278,-0.39892 0.73311,-0.73973 0.77152,-0.71002 0.72449,-0.5652 0.48177,-1.48344 -0.15271,-0.57773 -0.42142,-1.23093 -0.68299,-1.66027 -0.99985,-1.64119 -2.50003,-2.6631 -4.5848,-3.12313 -0.48949,-0.10802 -0.66007,-0.11658 -2.33141,-0.11705 -1.52802,-3.9e-4 -1.87509,0.0138 -2.2737,0.0935 -1.71708,0.34308 -2.82795,0.98845 -3.70697,2.15357 -0.75177,0.99645 -1.1904,2.24206 -1.42802,4.05519 -0.0862,0.65811 -0.0919,1.87593 -0.0919,19.77947 0,18.13003 0.005,19.11267 0.0947,19.77235 0.16803,1.23129 0.48581,2.33081 0.92519,3.20123 0.94536,1.87273 2.65387,3.02349 4.93454,3.32363 0.93241,0.12271 3.21553,0.077 4.05504,-0.0812 1.78958,-0.3372 3.10584,-1.1287 3.88435,-2.3358 0.93935,-1.45645 1.41834,-3.28068 1.48049,-5.63835 l 0.0289,-1.09765 -0.71388,-0.64536 c -0.39264,-0.35495 -0.73596,-0.70341 -0.76294,-0.77437 -0.13709,-0.3606 0.024,-0.82203 0.33962,-0.97252 0.17628,-0.0841 0.57719,-0.0905 5.61097,-0.0903 5.31725,0 5.4244,0.002 5.59149,0.10406 0.0937,0.0571 0.21812,0.18052 0.27649,0.27422 0.10457,0.16783 0.10585,0.22484 0.0862,3.85531 -0.0214,3.95056 -0.0395,4.28351 -0.32412,5.96876 -0.56116,3.32277 -1.93141,6.12407 -3.91422,8.00208 -2.66059,2.51997 -6.31966,3.86456 -11.4788,4.21807 -0.8657,0.0593 -4.07964,0.0578 -4.93942,-0.002 z"
         id="path919" />
      <path
         id="path911"
         style="fill:#00692c;fill-opacity:1;stroke-width:0.0522689"
         d="m -439.08002,-539.72339 c -6.6572,-0.38807 -11.19962,-2.50202 -13.56245,-6.31168 -1.00274,-1.61676 -1.70449,-3.59721 -2.06683,-5.83297 -0.335,-2.06709 -0.30807,-0.075 -0.32756,-24.22893 -0.0126,-15.62172 -9.9e-4,-22.18986 0.0401,-22.84154 0.18063,-2.85709 0.71204,-5.09308 1.69566,-7.13472 0.6372,-1.32259 1.4113,-2.46454 2.15768,-3.183 3.10282,-2.98672 7.67632,-4.36987 14.44943,-4.36987 7.32074,0 12.12074,1.66063 15.04652,5.20556 1.75146,2.1221 2.68129,4.80422 3.04257,8.7764 0.0969,1.06533 0.0975,44.75192 6e-4,45.86603 -0.20411,2.34762 -0.56826,4.10553 -1.17216,5.65851 -0.62597,1.60975 -1.40734,2.83434 -2.49292,3.90699 -2.7606,2.72772 -6.67769,4.16931 -12.21107,4.49398 -1.02516,0.0601 -3.53068,0.0575 -4.59967,-0.005 z m 4.44287,-10.83705 c 1.50849,-0.23701 2.55271,-0.70439 3.4295,-1.53499 0.50661,-0.47994 0.73137,-0.78879 1.06603,-1.46491 0.56367,-1.13881 0.89495,-2.52136 1.01653,-4.24248 0.0711,-1.00601 0.0752,-25.50727 0.004,-25.50727 -0.0276,0 -0.0769,0.1 -0.10958,0.22215 -0.12081,0.45242 -0.63616,1.94905 -0.88333,2.56531 -0.83,2.06939 -1.80862,3.9287 -3.05845,5.81079 -1.37245,2.06676 -2.4756,3.41898 -4.15749,5.09623 -2.03866,2.03302 -4.01818,3.49811 -6.12801,4.53548 l -0.92784,0.4562 0.0185,3.60656 c 0.0125,2.43234 0.0388,3.7427 0.0809,4.02472 0.2604,1.74645 0.71686,3.00687 1.47292,4.06711 0.98987,1.38814 2.57303,2.22643 4.60872,2.44032 0.66106,0.0695 2.95417,0.0211 3.56728,-0.0752 z m -9.30285,-20.98913 c 1.34554,-4.12979 3.77522,-8.31717 6.83907,-11.78665 0.66397,-0.75188 2.46044,-2.51673 3.14327,-3.08795 1.56386,-1.30824 2.91313,-2.22418 4.38283,-2.97525 l 0.5114,-0.26135 -0.0233,-3.08387 c -0.0251,-3.31615 -0.0447,-3.60562 -0.33081,-4.88631 -0.49318,-2.20743 -1.61437,-3.77044 -3.28118,-4.57419 -1.23898,-0.59746 -2.47813,-0.79668 -4.60414,-0.74022 -2.09223,0.0556 -3.33111,0.38303 -4.49631,1.18853 -1.46964,1.01597 -2.30808,2.90779 -2.53228,5.71377 -0.0351,0.43862 -0.0529,5.0571 -0.0512,13.22405 0.002,10.62699 0.0136,12.522 0.0736,12.36709 0.039,-0.10062 0.20507,-0.59456 0.36898,-1.09765 z" />
    </g>
  </g>
</svg>
